<svg width="109" height="113" viewBox="0 0 109 113" fill="none" xmlns="http://www.w3.org/2000/svg">
<g clip-path="url(#clip0_6_46)" filter="url(#filter0_bd_6_46)">
<path d="M99.3611 49.8611C99.3611 74.6376 79.2766 94.7222 54.5 94.7222C29.7235 94.7222 9.63892 74.6376 9.63892 49.8611C9.63892 25.0846 29.7235 5 54.5 5C79.2766 5 99.3611 25.0846 99.3611 49.8611Z" fill="#FFD039"/>
<path d="M54.0038 71.1174C59.9239 71.1174 64.723 68.8371 64.723 66.0243C64.723 63.2115 59.9239 60.9313 54.0038 60.9313C48.0838 60.9313 43.2847 63.2115 43.2847 66.0243C43.2847 68.8371 48.0838 71.1174 54.0038 71.1174Z" fill="#65471B"/>
<path d="M74.4198 72.7092L74.4198 72.7092L74.4142 72.7058L74.332 72.656C74.3312 72.6555 74.3304 72.655 74.3296 72.6545C71.7765 71.0891 68.4511 71.7785 66.7146 74.159C65.2998 72.976 63.5843 72.1119 61.6563 71.7183L58.9444 71.1639L62.1008 55.7191L62.1009 55.7189C62.731 52.6325 60.7264 49.5982 57.6431 48.9664L57.5456 48.9459L57.5456 48.9459L57.5396 48.9447C54.4522 48.3144 51.417 50.3204 50.7865 53.4054C50.7865 53.4054 50.7865 53.4055 50.7865 53.4055L46.3716 74.9994L46.3713 75.0011L46.332 75.1947L46.3317 75.1964L45.5061 79.2349L45.4959 79.2848L45.4932 79.3115L42.5267 93.8626C42.5267 93.8626 42.5267 93.8627 42.5267 93.8628C42.1972 95.4774 42.3781 97.2601 43.3607 98.6698C44.3704 100.119 46.1045 101 48.5072 101H57.139C60.9371 101 63.6097 100.32 65.5278 98.7551C67.4061 97.2227 68.3924 94.9752 69.1442 92.2392L76.3024 80.5839L76.303 80.583C77.9471 77.8992 77.1043 74.3602 74.4198 72.7092Z" fill="white" stroke="black" stroke-width="2"/>
<path d="M66.1348 86.1274C66.0821 86.1274 66.024 86.1221 65.966 86.1115C65.4804 86.0218 65.1611 85.5521 65.2561 85.0639C65.4118 84.2406 65.2508 83.5149 64.7626 82.8499C63.2057 80.7177 58.7222 79.7492 57.1257 79.5565C56.6348 79.4985 56.2839 79.0499 56.3446 78.5617C56.4026 78.0708 56.8301 77.7146 57.3394 77.7806C57.606 77.8096 63.868 78.5986 66.2061 81.7943C66.9925 82.8683 67.2643 84.0849 67.0136 85.4043C66.9318 85.8292 66.5571 86.1274 66.1348 86.1274ZM57.5347 98.6093C56.8671 98.6093 56.1361 98.5275 55.3365 98.3401C53.7268 97.9602 52.5921 97.0233 52.2226 95.7672C51.9112 94.709 52.1962 93.5902 52.9853 92.7721C54.0092 91.7113 55.6321 91.3629 57.4582 91.8274C57.9358 91.9488 58.2261 92.437 58.1047 92.9172C57.9833 93.3922 57.5004 93.6852 57.0148 93.5638C55.8405 93.2629 54.8378 93.4318 54.2757 94.015C53.9379 94.3633 53.8139 94.8304 53.9405 95.2632C54.1226 95.886 54.7823 96.3742 55.7482 96.5985C58.8621 97.3295 60.5853 96.1077 61.4851 94.9492C62.8257 93.226 62.984 90.8906 62.5064 89.9749C61.3928 87.8321 57.0993 87.3571 55.5397 87.3545C55.0462 87.3545 54.6451 86.9533 54.6451 86.4599C54.6451 85.9664 55.0462 85.5653 55.5397 85.5653C55.8115 85.5653 62.2478 85.6049 64.095 89.1515C64.8998 90.6953 64.6703 93.7722 62.8969 96.0496C62.0842 97.0893 60.4085 98.6093 57.5347 98.6093ZM44.5303 39.8914C44.5303 43.5621 42.2978 46.5388 39.5454 46.5388C36.793 46.5388 34.5605 43.5647 34.5605 39.8914C34.5605 36.2207 36.7904 33.244 39.5454 33.244C42.2978 33.2467 44.5303 36.2207 44.5303 39.8914ZM85.8658 32.104C86.4517 32.104 87.0401 31.922 87.5468 31.542C88.7871 30.6131 89.0351 28.8556 88.1062 27.6179C78.9599 15.421 66.7523 15.2811 66.2378 15.2811C64.6887 15.2811 63.4353 16.5372 63.4353 18.0863C63.4353 19.63 64.6835 20.8835 66.2272 20.8888C66.6653 20.894 76.2339 21.1289 83.6228 30.9825C84.1717 31.7161 85.0135 32.104 85.8658 32.104ZM64.4697 39.8914C64.4697 43.5621 66.7022 46.5388 69.4546 46.5388C72.2069 46.5388 74.4394 43.5647 74.4394 39.8914C74.4394 36.2207 72.2096 33.244 69.4546 33.244C66.6996 33.2467 64.4697 36.2207 64.4697 39.8914ZM23.1342 32.104C22.5483 32.104 21.9598 31.922 21.4532 31.542C20.2155 30.6131 19.9648 28.8556 20.8937 27.6179C30.0401 15.421 42.2476 15.2811 42.7622 15.2811C44.3112 15.2811 45.5647 16.5372 45.5647 18.0863C45.5647 19.63 44.3165 20.8835 42.7728 20.8888C42.3347 20.894 32.7661 21.1289 25.3772 30.9825C24.8283 31.7161 23.9865 32.104 23.1342 32.104Z" fill="#65471B"/>
</g>
<defs>
<filter id="filter0_bd_6_46" x="-2" y="0" width="113" height="113" filterUnits="userSpaceOnUse" color-interpolation-filters="sRGB">
<feFlood flood-opacity="0" result="BackgroundImageFix"/>
<feGaussianBlur in="BackgroundImageFix" stdDeviation="2"/>
<feComposite in2="SourceAlpha" operator="in" result="effect1_backgroundBlur_6_46"/>
<feColorMatrix in="SourceAlpha" type="matrix" values="0 0 0 0 0 0 0 0 0 0 0 0 0 0 0 0 0 0 127 0" result="hardAlpha"/>
<feOffset dy="4"/>
<feGaussianBlur stdDeviation="4.5"/>
<feComposite in2="hardAlpha" operator="out"/>
<feColorMatrix type="matrix" values="0 0 0 0 0 0 0 0 0 0 0 0 0 0 0 0 0 0 0.8 0"/>
<feBlend mode="normal" in2="effect1_backgroundBlur_6_46" result="effect2_dropShadow_6_46"/>
<feBlend mode="normal" in="SourceGraphic" in2="effect2_dropShadow_6_46" result="shape"/>
</filter>
<clipPath id="clip0_6_46">
<rect width="95" height="95" fill="white" transform="translate(7 5)"/>
</clipPath>
</defs>
</svg>
