<?xml version="1.0"?>
<svg xmlns:rdf="http://www.w3.org/1999/02/22-rdf-syntax-ns#" xmlns="http://www.w3.org/2000/svg" xmlns:cc="http://web.resource.org/cc/" xmlns:xlink="http://www.w3.org/1999/xlink" xmlns:dc="http://purl.org/dc/elements/1.1/" xmlns:svg="http://www.w3.org/2000/svg" id="Layer_1" xml:space="preserve" overflow="visible" viewBox="0 0 482.062 271.916" version="1.1" enable-background="new 0 0 482.062 271.916">
<g clip-rule="evenodd" fill-rule="evenodd">
	<path d="m318.47 7.368c-0.804 0.82-0.825 2.175 1.124 1.685-1.207 2.494-4.285 1.852-7.864 2.808-5.234 1.398-10.568 5.703-15.727 4.494 1.104-3.029 4.981-3.639 7.863-5.055 4.15-2.037 7.34-4.488 14.61-3.932z"/>
	<path d="m393.17 10.176c6.013 1.292 1.113 10.569-2.247 11.234-0.229 1.353 1.026 1.221 0.562 2.808-2.452-0.767-1.194 2.175-3.37 1.685-0.504-0.993-1.355-1.64-1.685-2.809 2.37-4.198 4.97-8.144 6.75-12.918z"/>
	<path d="m312.85 12.984c5.957-0.527 9.755 1.104 11.795 4.493-2.963 0.586-5.43-3.835-10.672-2.808-0.36-0.571-1.29-0.581-1.12-1.685z"/>
	<path d="m338.69 20.848c-1.867-0.182-0.609 2.761-3.37 1.685 0.472 0.652 0.74 1.506 0.562 2.809-0.955 0.207-1.06-0.438-1.123-1.124-1.171-2.013-4.466-1.9-5.056-4.493 3.18-1.615 7.16-3.699 8.99 1.123z"/>
	<path d="m399.35 20.848h3.37c0.483 0.453 0.334 1.539 1.124 1.685 0.554 2.934-1.966 4.521-3.37 6.179-1.042 1.23-0.454 2.392-1.124 2.808-1.234 0.769-3.419 1.344-5.055 0.562 0.3-5.126 4.61-6.247 5.05-11.234z"/>
	<path d="m320.15 21.971c5.263 1.491 8.776 6.552 13.479 10.11-1.109 1.324-1.842 3.026-2.246 5.055-6.57-2.22-10.56-7.03-11.23-15.165z"/>
	<path d="m137.61 25.903c0.987 4.487-5.24 4.317-7.863 3.37-0.741 2.518-8.374 2.294-11.233 4.493-1.23-1.168 0.493-1.815-0.562-2.808-2.062 0.391-4.27 0.969-6.179 0-2.078 0.267-0.988 2.702-1.685 3.932-0.213 0.375-1.553 0.297-1.685 0.562-0.416 0.832 0.93 1.311 0.562 2.247-0.654 1.664-4.165 1.93-2.809 4.494-2.814 0.58-3.825 1.148-5.055 2.247-2.179-4.984 6.714-10.598 10.672-14.604 0.598-0.605 1.755-2.466 2.247-2.808 7.08-4.942 15.62-1.604 23.57-1.125z" fill="#fff"/>
	<path d="m207.26 28.149c0.722 3.295-2.557 4.177-3.932 2.247 0.47-1.58 1.59-2.523 3.93-2.247z"/>
	<path d="m165.69 28.711c0.454 2.139-1.646 1.724-1.685 3.37-4.191 0.447-5.455-2.035-8.987-2.247 2.78-0.896 6.99-0.011 10.68-1.123z" fill="#fff"/>
	<path d="m142.66 29.834h1.685c0.158 0.907-0.531 0.967-0.562 1.685h-1.124v-1.685z" fill="#fff"/>
	<path d="m208.94 31.52h1.685c11.614 7.438 19.517 26.541 10.672 39.317-2.486 3.591-9.519 7.767-13.48 10.671-4.302 3.155-12.489 10.201-11.795 18.536 0.251 3.016 2.883 5.404 3.37 7.863 1.181-1.401-0.664-4.554-0.562-6.74 3.566 2.161 2.127 11.851 1.124 15.727-3.585-0.215-1.639 5.102-4.494 5.617 0.249-6.213 3.017-9.428 2.247-14.604-0.889-5.98-5.476-9.665-1.685-17.412 0.356-0.727 2.061-2.858 2.809-3.932 2.795-4.009 5.966-5.802 10.11-8.987 4.432-3.405 7.574-5.709 11.234-9.548 4.603-7.774 1.681-18.534-2.809-25.837-3.542-2.075-4.578-6.655-8.425-8.425 0.05-1.535-0.93-1.133 0-2.249zm-10.11 82c-0.97 3.72 1.44-4.54 0 0z"/>
	<path d="m321.84 35.451c-2.538 0.803-4.396-0.835-7.302-0.562-3.864 0.364-7.527 3.935-10.672 2.808 2.56-5.566 14.02-7.219 17.97-2.246z"/>
	<path d="m146.6 33.205c0.664-1.513 2.929 0.002 3.932 0-0.85 1.698-2.47-0.466-3.93 0z" fill="#fff"/>
	<path d="m353.85 40.506c-5.591-2.579-14.222-0.668-18.535-3.37 4.78-4.087 17.75-4.253 18.53 3.37z"/>
	<path d="m366.77 34.89c0.907-0.158 0.967 0.531 1.685 0.562 0.398 3.19-1.655 5.369 1.685 5.617-0.282 2.475-6.309 7.508-7.302 2.247 1.71 0.704 2.185 0.429 3.37-0.562-2.92-2.522 1.52-3.955 0.56-7.864z"/>
	<path d="m287.58 39.383c2.696-0.263 1.616 3.266 0.562 3.932-1.63-0.011-1.33-3.174-0.56-3.932z" fill="#fff"/>
	<path d="m308.92 39.383h1.685c0.238 1.174-0.385 1.487-0.562 2.247 3.93 0.189 8.214 0.024 10.11 2.247-0.048 2.573-4.059 1.184-5.617 2.247-0.901 0.783-0.598 2.772-1.685 3.37-1.492-0.006-3.208 0.212-3.932-0.562-0.158-1.469 0.205-2.416 1.685-2.247-0.916-1.33-3.297-1.196-4.493-2.247 1.62-1.006 1.84-3.404 2.81-5.055z"/>
	<path d="m108.96 42.191c-1.407 3.835-5.143 5.342-6.179 9.548-1.175-0.51-1.712-1.658-1.685-3.37 3.03 0.475 3.98-5.662 7.86-6.178z" fill="#fff"/>
	<path d="m358.35 42.753c1.109 0.389 1.497 1.499 1.686 2.809-1.76 0.256-1.8-1.201-1.69-2.809z"/>
	<path d="m360.6 43.876c0.955-0.207 1.06 0.438 1.123 1.123-0.478-0.103-0.529 0.219-0.562 0.562-0.66-0.09-0.48-1.023-0.56-1.685z"/>
	<path d="m350.48 46.123c3.29 0.747-2.03 2.653 0 0z"/>
	<path d="m354.98 46.123c1.532 1.276 2.567 3.05 5.617 2.809 0.074 1.384 0.085 2.706-0.562 3.37-1.531-3.431-3.683 1.665-7.302 1.124 0.157-2.089 3.352-1.142 3.932-2.808-1.664-1.445-3.611 1.606-6.74 0.562 0.16-3.202 3.22-3.512 5.05-5.057z"/>
	<path d="m371.83 48.37c0.277 4.868-1.273 21.604-7.863 12.357 1.312-0.185 2.32-0.675 3.37-1.124-0.432-2.678 0.793-3.7 2.246-4.493-2.994-1.433-1.348-4.068-3.37-6.178 1.53-0.478 4.07-1.823 5.61-0.562z"/>
	<path d="m265.67 78.7c-4.098-1.145-7.655-2.829-7.863-7.863 2.123-2.079 1.174-2.851 1.685-6.179 0.255-1.657 1.274-1.672 1.123-2.808-0.91-6.854-8.839-8.983-15.165-11.233-0.158-0.907 0.531-0.967 0.562-1.685 7.2 1.342 15.716 3.159 16.851 10.671 0.645 4.266-3.692 9.383-2.809 12.919 0.92 3.698 6.79 2.77 5.61 6.178z"/>
	<path d="m289.26 50.617c0.664 0.646 1.985 0.636 3.37 0.562-1.604 3.452-0.961 9.149-5.055 10.11-1.52-3.539 0.77-7.733 1.68-10.672z" fill="#fff"/>
	<path d="m106.72 52.863c0.478-0.104 0.53 0.219 0.562 0.562 0.351 1.334 3.457-0.087 3.932 1.124-0.743 2.814-0.672 6.442-1.124 9.548-2.157-1.213-2.04-4.701-3.37-6.74-2.432-0.185-1.382 3.111-3.932 2.809-0.46-4.202 3.48-4.009 3.93-7.303z" fill="#fff"/>
	<path d="m339.81 53.425c2.904-0.236 2.022 5.716-0.562 5.055-0.1-2.459 1.83-2.888 0.56-5.055z"/>
	<path d="m345.99 54.548c5.376 4.736-3.405 12.205-8.426 12.918-0.418-2.034-2.33-2.909-1.123-5.055 4.755 0.449 6.751-1.861 9.549-3.37v-4.493z"/>
	<path d="m307.24 59.603c3.829 0.477 5.378 3.235 6.74 6.179-3.38 1.474-7.52-3.509-6.74-6.179z"/>
	<path d="m299.93 60.165c1.729 0.331 3.976 0.144 3.932 2.247-2.05-0.001-4.33 0.218-3.93-2.247z"/>
	<path d="m421.26 61.85c1.254 5.747-4.083 4.903-4.493 8.987-4.018-0.087-4.586 3.277-8.425 3.37-0.151-5.815 5.646-10.419 9.549-14.042 1.18 0.503 2.49 0.873 3.37 1.685z"/>
	<path d="m362.84 63.535c2.583 0.787 1.437 5.304 2.247 7.863-3.222 2.774-3.78 11.192-10.672 8.425 0.16-2.274 4.436-0.433 4.493-2.809-0.084-1.039-1.901-0.345-2.246-1.124 0.389-1.109 1.498-1.497 2.809-1.685-1.47-4.028 4.97-4.682 3.37-10.67z"/>
	<path d="m111.77 65.22c1.364 1.069 1.557 3.311 2.809 4.493-1.9-0.419-4.29-2.463-2.81-4.493z" fill="#fff"/>
	<path d="m343.74 66.343c3.562 0.441 7.436 0.128 5.056 3.932 2.134-0.112 2.131-2.362 4.493-2.247-0.555 3.825-7.436 6.19-10.11 2.809 0.476-0.835 1.809-0.813 2.809-1.124-0.35-1.523-2.35-1.398-2.25-3.37z"/>
	<path d="m149.97 70.275c0.042 2.85-4.402 1.214-6.178 2.247 0.22-3.06 3.49-3.12 6.18-2.247z"/>
	<path d="m160.08 72.522c0.46-0.962 4.062-0.362 3.932 1.123-2.05 0.365-2.99-0.378-3.93-1.123z" fill="#fff"/>
	<path d="m155.02 73.083c-1.187 2.097-3.568 3.007-5.617 4.493-1.796 1.303-3.637 3.875-5.055 4.494 0.117-0.051-3.478-1.435-3.932 0.562-1.697-1.58-0.603-2.66-2.247-4.493 1.677-0.738 5.575-4.678 7.302-1.685 3.13-1.189 4.9-3.729 9.56-3.371z"/>
	<path d="m351.05 83.755c0.834-0.245-0.222-0.719 0-1.685 2.56 0.086 2.204 0.464 4.493 0 0.869 0.816 0.495 2.875 0.562 4.493 0.833-0.477 1.207-1.414 1.123-2.808 2.055 2.813 0.233 9.502 3.37 11.233-2.457 1.324-5.381-1.504-6.74-2.809-4.228-4.056-8.055-10.921-9.549-17.412 3.67 1.583 4.14 6.354 6.75 8.988zm3.37 2.247c0.537 4.292 1.521-0.257-0.562-1.685-0.21 0.796 0.5 1.204 0.56 1.685z"/>
	<path d="m110.09 77.577c0.307 0.816-0.656 2.903 0.562 2.809-1.146 1.823-1.421-1.896-2.809-1.685 0.14-0.989 0.97-1.281 2.25-1.124z" fill="#fff"/>
	<path d="m124.69 77.577c1.517 0.502-0.261 2.28-1.685 1.685-0.17-1.295 1.63-0.624 1.69-1.685z" fill="#fff"/>
	<path d="m120.76 78.139c-0.091 0.653 0.124 0.999 0.562 1.123-0.529 1.531-2.833 1.286-4.493 1.685 0.48-1.766 2.16-2.329 3.93-2.808z" fill="#fff"/>
	<path d="m156.15 78.7c0.907-0.158 0.967 0.531 1.685 0.562 0.23 1.354-1.025 1.221-0.562 2.809-1.45-0.064-1.13-1.882-1.13-3.371z"/>
	<path d="m266.23 78.7c2.271 0.681 1.066 6.853-0.562 7.302-0.29-3.463 1.73-4.381 0.56-7.302z"/>
	<path d="m117.95 85.44c-0.368 2.747-3.515-0.779-4.494 1.123-0.862-2.133-2.893-3.098-2.247-6.74 5.3-3.027 2.36 5.97 6.74 5.617z" fill="#fff"/>
	<path d="m151.65 80.385c0.653-0.091 1 0.124 1.124 0.562 0.685 4.646-5.083 10.082-2.247 16.85 3.517 0.708 1.539-4.078 5.055-3.37-0.404 2.591-1.499 4.492-3.37 5.617-1.984-0.263-3.075-1.419-4.493-2.247-0.65-7.756 1.32-12.907 3.93-17.408z"/>
	<path d="m369.02 82.07h1.686c0.158 1.469-0.205 2.416-1.686 2.247-0.94-1.116 0.05-0.714 0-2.247z"/>
	<path d="m362.84 83.755c2.656 0.152 1.746 3.871 3.37 5.055-1.35 0.764-3.44-2.526-3.37-5.055z"/>
	<path d="m353.85 84.317c2.082 1.428 1.099 5.978 0.562 1.685-0.05-0.481-0.76-0.889-0.56-1.685z" fill="#fff"/>
	<path d="m140.98 84.878c2.397 1.817 4.522 6.582 3.932 9.549-2.356-1.014-3.477-3.263-3.37-6.74-1.818-0.694-0.43 1.817-2.247 1.123 0.15-1.726 1.22-2.526 1.69-3.932z"/>
	<path d="m429.12 92.742c-0.944-4.124 11.136-12.079 10.109-3.932-0.35 2.734-5.59 5.614-10.11 3.932z"/>
	<path d="m155.58 85.44c-0.045 1.827-0.718 3.026-2.247 3.37 0.11-1.772 0.4-3.35 2.25-3.37z"/>
	<path d="m361.16 85.44c1.467 1.341 1.898 3.718 2.247 6.178-0.956-0.207-1.06 0.438-1.124 1.124-3.085 0.277-1.474-4.143-2.808-5.617 0.49-1.545 2.27 1.309 1.68-1.685z"/>
	<path d="m119.64 86.002c1.3 0.572 2.614 1.13 2.808 2.808h-4.493c-0.61-2.095 2.1-0.889 1.68-2.808z" fill="#fff"/>
	<path d="m134.8 89.372c-0.611 1.261-1.305 2.44-1.685 3.932-2.404 0.71-2.778-0.041-5.617 0 0.37-3.133 4.86-4.697 7.3-3.932z"/>
	<path d="m56.729 89.372c6.384 1.105 9.605 5.373 10.11 12.357-2.692 0.863-4.151-1.395-5.617-2.809-1.132-1.091-0.979-0.649-1.685-2.809-0.654-1.999-3.687-2.703-2.808-6.74z"/>
	<path d="m98.293 89.934c0.455 0.107 0.56 0.563 1.123 0.562-0.106 0.455-0.563 0.56-0.562 1.124-0.455-0.107-0.56-0.563-1.124-0.562 0.108-0.456 0.564-0.561 0.563-1.124z"/>
	<path d="m262.3 90.495c2.75-2.078 3.37 1.731 0 0z" fill="#fff"/>
	<path d="m284.77 91.619c-4.319 1.129-11.128-0.1-15.727-0.562 3.19-2.025 11.88-0.439 15.73 0.562z" fill="#fff"/>
	<path d="m370.14 91.619c2.592 2.838 5.777 5.082 6.74 9.548-2.96-1.431-7.5-5.895-6.74-9.551z" fill="#fff"/>
	<path d="m54.482 105.1c-6.974 1.591-9.046-6.203-12.357-10.11-0.674-0.738-0.219-0.883 0-1.685 4.314-2.148 10.321 7.555 12.357 11.795z"/>
	<path d="m255.56 92.742c0.971 1.276 1.355 3.138 1.123 5.617-2.066-1.117-4.26-2.106-5.055-4.494 1.22-0.47 1.93-1.454 3.94-1.123z" fill="#fff"/>
	<path d="m131.99 93.865h2.247c0.66 1.95-3.14 2.612-2.25 0z"/>
	<path d="m282.52 95.55c1.717-0.406 2.047 0.574 3.37 0.562-0.01 0.858-4.16 1.232-3.37-0.562z" fill="#fff"/>
	<path d="m290.95 95.55c0.531 2.03-2.213 0.784-3.37 1.124 0.06-1.435 1.88-1.115 3.37-1.124z" fill="#fff"/>
	<path d="m115.7 96.112c0.327 2.012-1.662 1.708-3.37 1.685 0.51-1.174 1.66-1.713 3.37-1.685z"/>
	<path d="m311.73 97.235c2.993 1.191 7.419 4.781 5.056 7.863-2.46-1.86-4.27-4.35-5.06-7.865z" fill="#fff"/>
	<path d="m366.77 97.235c0.907-0.158 0.967 0.531 1.685 0.562 0.64 4.667 6.447 6.945 5.055 11.795-3.447-1.794-3.643-6.841-6.739-8.987 0.952 4.29 3.81 6.675 5.616 10.11-0.575 2.982-1.752 5.363-1.685 8.987-3.528-3.024-5.91-7.196-8.426-11.233 0.285-1.774 1.653-2.465 1.686-4.493 2.464 2.216 3.897 5.464 6.74 7.302 0.551-3.369-5.085-5.393-6.179-8.987 0.32-2.1 2-2.855 2.23-5.055z" fill="#fff"/>
	<path d="m370.14 97.797c3.271 1.583 2.204 5.041 6.179 5.055 0.074 1.385 0.085 2.706-0.562 3.37-2.78-1.9-4.35-5.01-5.62-8.423z" fill="#fff"/>
	<path d="m255.56 101.73c2.316 0.304 2.939 2.303 3.932 3.932-1.833 1.796-3.813-1.027-5.055-1.685 0.29-0.84 0.83-1.42 1.12-2.25z" fill="#fff"/>
	<path d="m380.25 102.29c5.509 1.423 10.312 5.096 15.728 9.548 4.062 3.34 8.838 6.6 11.795 9.548 2.639 2.632 4.285 5.983 6.74 7.864 4.079 3.126 9.55 3.946 8.986 11.795-0.194 2.714-2.819 5.12-3.37 7.864-0.479 2.387 0.899 4.812 1.123 7.302 0.683 7.59 0.47 15.259-2.808 23.028-7.607 5.312-20.106 5.117-30.331 2.809-0.382-2.239-1.224-4.019-1.123-6.74-8.443-4.85-11.745-14.841-12.356-27.522 1.529-7.282 5.25-13.709 7.863-21.343-5.914 2.324-5.484 10.991-10.11 14.604 0.298 3.481-0.269 6.097-1.123 8.425 0.127 0.809 1.676 0.195 1.685 1.123-0.75 8.053 2.326 12.278 4.493 17.412-1.981-0.077-2.511-1.607-4.493-1.685-0.977 6.972 7.383 9.465 10.11 14.604 2.021 0.975 4.688 1.303 5.055 3.932-3.445-0.674-4.525-3.713-9.548-2.809-0.445 4.811 5.804 5.087 9.548 3.932-1.457 12.969-2.83 25.993 0 38.756 3.092-6.665-1.592-21.775 3.932-27.522-2.855-2.534 3.248-1.789 1.124-5.055 2.793-0.203 3.34-2.651 4.493-4.494 8.548 0.123 14.533-2.317 20.782-4.493-0.319 23.607 0.608 49.39-9.549 64.031-26.793-3.163-45.775-14.136-60.661-29.207-0.418-1.729 1.542-1.08 1.124-2.809-10.533 0.978-17.546-5.903-24.714-10.11-0.763 0.174-0.466 1.406-0.562 2.247-2.108-0.7-4.146-1.472-6.74-1.686-0.547-2.231 3.139-0.23 2.809-2.246-3.239-1.727-7.286 0.565-10.11 1.123 6.406-8.163 18.263-1.663 30.33-0.562 6.822 0.622 10.901 2.122 16.851 5.055 1.994 0.983 3.762 1.985 5.616 2.809 4.15 1.841 7.316 2.741 10.11 5.616 3.976-1.42 7.259 2.389 12.357 1.686-4.225-5.698-12.909-6.938-19.659-10.11 1.428-2.359 5.352 0.987 7.302 1.686 3.567-1.114 9.147-0.214 11.233-2.809-0.062-1.397-1.052-1.739 0-2.809-1.311-3.243-6.388-0.749-8.986-1.685-1.788-1.744 2.715-2.946 1.123-4.494-3.671-0.487-1.785 4.58-5.616 3.932-0.451-1.948 0.836-2.158 0.562-3.932-2.549-0.302-1.5 2.994-3.932 2.809-0.519-2.577 1.405-2.714 1.123-5.055-2.188-1.18-2.992 3.186-4.493 4.493-1.38-1.599 1.304-3.914 1.123-6.179-2.753-1.902-1.878 3.905-4.493 3.932-0.191-2.812 2.14-3.102 1.685-6.178-3.383 0.549-2.669 5.193-6.178 5.616 0.687-2.121 2.445-3.171 2.246-6.178-0.906-1.89-1.778 1.766-2.809 0 0.515-4.305-2.486-7.042 0-10.11-0.725-7.275-5.397-12.592-11.233-16.289 1.639-3.408 8.714-3.126 6.74-8.425 6.432-1.053 13.934-0.505 17.974-5.055v-7.302c-3.374-3.442-3.418-10.397-5.055-15.727-1.12-3.646-5.727-8.519-1.686-11.234 1.362 7.812 2.614 15.734 9.549 17.974 1.049 0.999-0.456 1.428 0 3.37 2.144 0.262 1.064-4.388 0.562-5.055-4.534-0.896-5.531-5.328-7.863-8.425 1.559-1.882 2.627 1.454 3.932 1.685 0.215-2.087-2.276-1.469-1.685-3.932 1.583 0.101 0.7 2.669 2.808 2.247-1.556-4.623-4.922-7.435-6.178-12.357 2.843 3.522 7.349 5.382 7.302 11.795 2.468-3.431 0.809-6.169 1.685-9.548 1.4-5.28 6.42-8.35 7.89-13.46z" fill="#fff"/>
	<path d="m142.66 110.15c-1.719-1.089-2.316-3.3-3.37-5.055 2.29-1.44 2.96 2.83 3.37 5.05z"/>
	<path d="m329.14 107.35c2.169-0.109 3.228 0.892 3.37 2.808-0.064 1.996-1.858 2.26-3.932 2.247 0.11-1.77-0.38-4.13 0.56-5.06z"/>
	<path d="m138.73 111.84c3.237 0.303 3.635 5.225 2.809 7.863-2.14-1.41-2.41-4.7-2.81-7.86z"/>
	<path d="m304.99 113.52c1.598 0.749-0.434 2.498-0.562 3.37-2.23-0.56 0.09-2.26 0.56-3.37z"/>
	<path d="m361.72 114.65c1.666 0.955 1.89 3.353 2.809 5.055-1.65-0.97-2.61-2.63-2.81-5.05z" fill="#fff"/>
	<path d="m303.86 117.46v2.247c-2.16 0.43-2.16-2.7 0-2.25z"/>
	<path d="m275.78 136.55c-2.732-2.455 0.771-5.709 0.562-8.425-0.349-4.531-3.845-4.801-5.617-8.425 6.38-1.05 12.17 12.62 5.06 16.85z"/>
	<path d="m44.934 120.83c0.653 1.781 1.562 3.307 3.37 3.932-2.546 3.934-10.173 0.667-9.548-3.932 2.953-2.62 3.645 1.11 6.178 0z"/>
	<path d="m309.48 123.07c0.69 0.245 1.153 0.719 1.123 1.685-0.69-0.25-1.15-0.72-1.12-1.69z"/>
	<path d="m28.646 129.81c-0.198 1.862-1.683 2.437-2.809 3.37-3.257-1.798-7.683-2.427-9.548-5.617-1.083 0.228-0.444 2.177-2.247 1.685 0.035-10.72 11.749-2.39 14.604 0.57z"/>
	<path d="m311.17 130.37c0.793-1.294 3.658 0.042 3.37 1.685-1.68-0.01-1.91-1.46-3.37-1.69z"/>
	<path d="m187.04 132.62c5.278-1.659 13.975 1.331 18.536 0 1.829 2.232-5.474 0.122-5.617 2.247 1.01 3.307 4.767 1.163 7.302 1.123 2.355-0.037 4.752 0.678 6.74 0-0.597 3.335-5.637 2.227-7.302 4.494 1.154 2.97-0.758 4.386-1.685 6.74-11.148 0.29-17.523-4.194-19.658-12.918 3.354 0.271 9.229 3.148 11.795 0.562-1.39-2.73-7.09-1.15-10.12-2.24z" fill="#fff"/>
	<path d="m210.07 132.62c1.805 0.634-0.541 1.604-1.685 1.124 0.17-1.95 1.52 0.05 1.69-1.12z" fill="#fff"/>
	<path d="m322.96 139.36c0.907-0.158 0.968 0.531 1.686 0.562-0.319 3.238-1.558 5.558-2.247 8.426 2.5-1.433 1.386-6.479 4.494-7.302 0.941 2.269-3.47 4.006-2.247 8.425-0.882 0.241-0.48 1.767-2.247 1.123-0.106 4.039 1.711 6.152 2.247 9.549-5.67-2.63-4.5-15.94-1.68-20.79z" fill="#fff"/>
	<path d="m365.65 142.17c-0.569 3.536 0.533 5.821 1.686 10.11-0.653-0.092-1 0.124-1.124 0.562-3.348-0.959-2.579-6.033-2.808-10.11 0.74-1.38 1.69 1.01 2.24-0.56z" fill="#fff"/>
	<path d="m361.16 143.85c2.491 1.979 1.435 5.656 2.247 10.11-1.385 0.074-2.707 0.085-3.37-0.562 0.086-1.786 1.273-2.471 1.123-4.493-2.091-0.031-1.62 2.499-1.685 4.493-1.175 0.323-1.604 1.393-3.37 1.123-0.057-2.864 2.332-3.284 2.808-5.616-3.819-1.003-2.998 7.479-7.863 7.302 0.481-4.948 5.884-4.976 6.179-10.11 1.21-0.82 3.01-1.09 3.92-2.24z" fill="#fff"/>
	<path d="m324.65 150.59h1.123v1.124h-1.123v-1.12z" fill="#fff"/>
	<path d="m349.92 151.72c2.01 1.364-0.979 6.169-4.493 5.616 0.62-2.76 3.41-3.34 4.49-5.62z" fill="#fff"/>
	<path d="m424.06 152.28c0.888 2.482 1.731 5.009 1.686 8.425-2.04-1.32-1.25-5.49-1.69-8.42z" fill="#fff"/>
	<path d="m325.77 154.53c1.888-0.576 0.875 1.747 1.124 2.809 0.141 1.878 3.281 2.615 1.685 4.493-2.52-0.85-3.07-3.67-2.81-7.3z" fill="#fff"/>
	<path d="m343.74 155.09c2.76 0.9-1.704 6.152-3.37 4.494 0.19-2.43 3.28-1.96 3.37-4.49z" fill="#fff"/>
	<path d="m425.19 162.39c1.66 6.856 0.622 15.659 1.123 24.152 0.562 9.52-0.613 20.797-0.562 28.646 0.012 1.771 1.069 3.467 0.562 5.055-1.216 3.8-7.045 4.235-6.74 8.426 2.312 2.171 5.455-1.074 8.425 1.685-2.018 4.16-5.788 6.568-10.672 7.863-1.688-5.376 0.829-10.508 1.686-16.85 1.247-9.233 1.464-20.021 1.685-32.016 0.072-3.924-0.196-8.248 0.562-11.233 0.478-1.877 2.126-3.108 2.809-5.056 1.3-3.73 0.31-7.22 1.12-10.67z" fill="#fff"/>
	<path d="m232.53 168.57c4.492 2.612 4.753 10.294 1.124 14.042-2.568-1.376-0.567-6.079 0.562-7.302-0.08-2.56-3.31-4.26-1.68-6.74z"/>
	<path d="m332.51 171.38c2.875 1.057 2.716 5.147 3.932 7.863-1.583 1.303-3.511-0.648-6.178 0-0.84-4.21 1.15-5.59 2.25-7.86z" fill="#fff"/>
	<path d="m384.75 176.43c0.71-1.691 2.295 1.25 1.124 1.686-0.81-0.13-0.2-1.68-1.12-1.69z" fill="#fff"/>
	<path d="m229.16 179.24c-0.545 3.574-1.795 6.443-5.055 7.302 1.51-2.61 1.44-6.8 5.06-7.3z"/>
	<path d="m318.47 183.73c1.566 0.914 5.178 1.99 3.932 3.932-1.8-0.81-3.65-1.58-3.93-3.93z" fill="#fff"/>
	<path d="m231.97 185.42c0.653-0.092 1 0.124 1.124 0.562-0.839 3.25-2.529 6.614-3.932 9.549-1.394 2.914-2.447 6.769-5.617 7.863 1.04-7.77 5.79-11.82 8.43-17.97z"/>
	<path d="m330.83 187.66c1.326 1.876-0.68 4.303-1.124 6.179-3.013-1.021-7.093-3.625-6.74-6.179 2.32-0.66 4.72 2.33 7.86 0z" fill="#fff"/>
	<path d="m1.123 193.28c7.722 0.517 12.068 4.408 19.659 5.055 11.602 6.603 22.691 13.072 32.577 21.344 4.936 4.13 8.969 8.92 13.48 13.48 4.383 4.431 9.877 8.577 12.356 14.604-8.045-2.603-12.165-10.587-17.974-16.289-8.1-7.949-16.588-14.904-26.96-21.343-4.599-2.855-9.801-6.29-15.166-8.426-1.272-0.506-3.196-0.108-4.493-0.562-2.052-0.717-4.056-2.49-6.179-3.37-2.216-0.919-4.375-1.609-6.74-2.246-0.434-0.49-0.602-1.26-0.56-2.24z"/>
	<path d="m260.06 201.71c-11.317-1.771-17.075-0.728-28.645-2.246 0.875-2.516 3.854-1.097 6.178-1.124 5.138-0.06 10.09 0.316 14.042 1.124 3.22 0.66 8.49-1.55 8.42 2.25z"/>
	<path d="m11.795 201.71c-1.174 0.238-1.487-0.385-2.247-0.562 0.101-1.63 2.67-1.36 2.247 0.56z"/>
	<path d="m215.12 207.32c-0.873 2.795 0.009 4.029-0.562 7.302-3.803-2.578-6.06 3.827-7.864 6.74-1.492 0.005-3.208-0.213-3.932 0.562-0.146 1.645 1.27 1.726 1.124 3.37-1.645 0.146-1.726-1.271-3.37-1.124-1.238 1.187 0.721 1.66 0.562 3.37-1.353-0.229-1.221 1.026-2.808 0.562-0.333 1.793 1.054 1.737 0 2.809-1.533 0.051-1.131-0.936-2.247 0 1.125 2.064 0.051 3.776 0 6.179-3.938-2.054-6.506-5.476-12.356-5.617 5.837-8.578 11.823-17.009 15.727-27.521 6.94-0.57 11.26 1.48 15.73 3.37z" fill="#fff"/>
	<path d="m39.317 204.52c12.198 5.579 21.169 15.854 30.331 25.275 2.956 3.04 6.547 5.863 8.987 8.986 1.628 2.085 3.646 4.896 3.37 7.864-2.814 0.341-0.483-1.257-1.685-2.809-9.837-10.39-18.955-21.078-30.331-30.331-3.576-2.92-7.756-5.16-10.672-8.99z"/>
	<path d="m87.06 244.39c-12.118-12.222-23.235-25.443-37.632-35.386-0.297-0.451-0.586-0.912-0.562-1.685 2.759 0.316 4.959 2.878 7.302 4.493 2.534 1.747 5.697 3.108 7.863 5.055 2.668 2.397 4.898 5.726 7.863 8.426 1.5 1.365 2.965 2.378 4.494 3.932 3.823 3.89 8.254 9.33 10.672 15.17z"/>
	<path d="m463.38 207.32c1.256 0.407 0.271 3.202-1.123 2.809-0.09-1.39 0.88-1.74 1.12-2.81z"/>
	<path d="m57.853 248.33h-13.48c-5.867-9.235-12.77-18.004-21.344-25.275-3.556-3.016-8.197-4.326-8.986-10.11 6.205-3.205 16.632 5.277 23.59 11.233 6.826 5.844 12.854 11.277 16.851 16.289 1.165 1.45 1.769 6.18 3.369 7.86z"/>
	<path d="m279.71 218.56c1.887-0.577 0.874 1.747 1.123 2.809 1.422 1.573 3.244 2.747 4.493 4.493 13.762 5.351 37.009 6.929 54.482 4.493-2.339 1.405-5.061 2.428-6.74 4.493-16.206 1.979-37.051 1.851-51.112-6.74 0.39-4.05-4.52-5.41-2.24-9.54z"/>
	<path d="m325.77 224.17c-9.898-1.521-18.836-4.005-30.892-3.37 3.949-2.015 9.28-1.933 15.165-1.123 3.726 0.513 8.481 0.915 11.233 1.686 1.53 0.42 3.88 1.25 4.5 2.8z"/>
	<path d="m337 222.49c1.43 0.068 2.179 0.817 2.247 2.247-0.66-0.84-2.33-0.67-2.25-2.25z"/>
	<path d="m230.85 226.42c-0.028 4.277-4.042 4.57-5.055 7.863-1.429-3.24 0.377-4.952 0-8.425 0.74-0.58 3.75-0.02 5.05 0.56z" fill="#fff"/>
	<path d="m355.54 232.04h3.37c0.27 1.768-0.8 2.196-1.123 3.37-1.33-0.55-2.76-0.99-2.25-3.37z"/>
	<path d="m357.22 239.34c-0.229 1.082-2.178 0.443-1.686 2.246 1.611 1.946 6.307 0.809 8.426 2.247-5.259 2.401-12.487-0.687-19.659-0.562-1.836 0.031-4.445 0.247-6.178 0.562-6.408 1.162-16.919 7.051-20.221-1.124 6.562 1.045 15.025 0.878 20.221-1.123 0.576-1.887-1.747-0.874-2.809-1.123 2.539-1.554 6.313-1.573 8.986-1.686 4.2-0.19 9.12 0.11 12.92 0.55zm-2.8 1.12c-3.335-0.529-5.604 1.083-7.863 0 0.94 1.38 7.76 3.02 7.86 0z"/>
	<path d="m318.47 239.34c1.385-0.074 2.706-0.086 3.37 0.562-0.01 0.86-4.16 1.23-3.37-0.56z"/>
	<path d="m325.77 239.34c0.577 1.887-1.746 0.874-2.809 1.123-0.57-1.88 1.75-0.87 2.81-1.12z"/>
	<path d="m346.55 240.46c2.26 1.083 4.528-0.529 7.863 0-0.09 3.02-6.91 1.38-7.86 0z" fill="#fff"/>
	<path d="m446.53 241.02c0.158 1.469-0.205 2.416-1.685 2.247-0.15-1.47 0.21-2.41 1.69-2.25z"/>
	<path d="m312.29 126.44c0.431-2.836 1.554 1.769 3.37 1.124 1.478-4.358-3.435-6.774-5.617-10.11-2.35-3.591-3.247-6.537-7.302-5.617 0.08-2.167 1.897-2.595 1.685-5.055-4.572 1.231-6.015 5.593-5.616 11.795-1.675 4.095-3.478 8.974-3.37 14.042 0.027 1.319 0.918 2.13 1.123 3.37 0.878 5.305-2.632 9.131-3.932 13.48 10.208 1.213 15.779 7.062 20.782 13.48-0.629-9.059-6.922-15.352-5.617-23.029 2.589 2.165 3.337 6.103 4.494 9.549 2.043 6.085 4.265 12.363 3.932 20.22 3.261-1.606 4.811-4.924 8.986-5.616-0.779-1.842-2.581-2.661-3.932-3.932-1.701-4.237-2.676-9.911-1.123-14.604-1.349-1.46-0.783-4.834-1.686-6.74-2.468-0.916-3.899-4.54-7.302-2.809-0.588-2.29-1.237-3.27-3.932-2.247 0.784-3.218-1.139-3.729-2.246-5.055 0.434-2.785 0.754-3.743-1.124-5.055 0.735-1.887 0.663-4.579 2.809-5.055 0.337 0.841-1.194 2.303-1.123 3.37 0.024 0.374 1.349 0.811 1.685 2.247 0.243 1.037-0.579 2.755-0.562 2.808 0.257 0.765 1.129 0.796 1.685 1.685 1.911 3.057 0.245 1.763 2.809 3.932 1.901 1.609 0.775 0.277 4.494 1.685 1.127 0.427 1.547 2.867 3.932 1.124 2.066 0.611 2.651 3.57 5.616 1.685 0.663 2.333 3.331 2.66 5.056 3.932-1.559 3.055 0.42 6.66-3.37 7.864 1.832 4.343 1.244 7.951 3.932 12.356 2.884-0.04 6.925-2.301 7.863 0.562 2.391-0.723-0.055-2.791 0.562-5.055 2.92-1.762 5.053-4.309 6.74-7.302 6.623-2.364 12.154-5.819 17.412-9.549 2.852-8.108-4.747-13.568-5.056-20.22-0.061-1.304 0.81-3.143 1.124-6.178 0.3-2.902 1.424-2.81 0-5.617-0.024-2.083 2.105-2.013 2.808-3.37-1.396-5.039 4.043-6.863 3.932-12.357 3.397-1.283 3.481-5.88 6.179-7.863 2.145 1.878 0.301 3.783 1.123 6.178 2.013 5.857 10.361 9.546 16.289 12.918 4.332 2.465 8.546 4.915 12.356 7.864 2.066 1.599 5.86 3.844 7.863 6.178 1.542 1.796 1.966 4.219 3.37 6.179 0.465 0.647 3.275 1.259 1.686 2.808 1.354 0.23 1.221-1.026 2.809-0.562 2.964 2.465 5.696 5.162 7.302 8.987 15.937 4.648 29.106 16.694 34.823 32.016 1.255 3.363 1.864 8.253 2.809 12.356 0.36 1.565 2.463 3.048 0.562 4.493 1.147 1.334 2.223-0.771 3.37 0.562-1.278 0.871-1.061 1.17-0.562 2.809-2.198 0.888-1.163-1.458-2.247-1.685-2.071 4.91-0.034 9.461-0.562 14.042-0.152 1.319-1.115 1.767-1.685 3.369-1.012 2.844-0.708 6.752-1.686 8.987-0.943 2.158-3.55 3.221-3.37 7.302 2.106-0.515 2.296-2.946 3.37-4.493 1.344 3.788-3.312 6.415-5.055 8.986 0.226 3.222-1.097 4.896-1.686 7.302 5.689-5.356 7.862-14.23 11.233-21.905 1.245-0.309 0.8 1.072 1.686 1.124 3.504-11.661 6.112-26.787 2.246-41.003-0.233-0.858-0.771-2.507-1.123-3.37-0.415-1.02-0.788-2.046-1.123-2.808-5.348-12.171-14.872-23.118-23.591-29.769-6.873-2.863-12.97-6.501-19.658-9.548-2.453 0.019-5.075 0.207-6.179-1.124 1.884-2.114 5.729-0.544 7.863 0 6.805 1.735 10.97 4.405 16.851 7.863 3.229 1.899 7.153 3.465 9.549 5.617 4.216 3.788 6.302 9.257 10.672 12.357 0.596 2.961 2.188 4.925 3.932 6.739 0.913 6.425 5.757 11.793 5.055 17.974 1.689 0.566 0.995-1.251 1.123-2.246 2.54 3.776 1.229 8.383 1.686 14.604 2.207-4.274 1.271-8.255 1.685-14.042 1.806 4.278 0.756 8.132 1.124 14.042 2.592-1.34-0.541-8.404 2.808-8.987-1.79-14.347-9.624-26.91-16.85-37.632-1.175-0.323-1.604-1.393-3.37-1.124 0.071-1.007-0.688-1.185-0.562-2.247-6.117-3.619-12.116-7.355-18.535-10.672 2.775-2.796 5.945 2.787 10.109 2.247 11.676 8.128 24.967 21.493 29.769 40.441 3.29 12.977 3.091 29.716 0 43.811-0.257 1.176-1.448 2.125-1.685 3.37-1.104 5.827-2.596 11.23-5.055 16.288-1.849 3.802-2.593 4.119-6.179 5.617-0.778-0.345-0.085-2.162-1.123-2.247-2.621 3.933-5.312 7.795-11.233 8.425-1.419-8.529 8.159-13.41 7.302-21.343-4.732 5.94-6.626 14.718-11.796 20.22-3.288-3.095 4.717-6.576 2.809-10.11-1.857 0.502-1.294 3.421-3.932 1.686-0.804 2.753-3.453 3.661-4.493 6.179-2.774-0.596-3.646-3.096-4.493-5.617-3.251-0.068-1.567 4.798-4.494 5.055v-2.808c-3.287-0.515-4.833-3.633-5.055-5.617-1.301 4.691-4.978 7.005-8.425 9.549 5.229 5.319 15.894 11.12 13.479 22.467-0.951 4.475-5.093 6.354-8.425 9.548h-7.863c8.267-3.872 14.883-12.269 8.425-21.343-2.942-4.136-8.167-9.282-11.795-10.672-2.538 6.017-3.287 13.33-12.919 11.795-1.246-0.199-2.139-1.263-3.37-1.686-4.666-1.602-9.067-2.203-13.479-3.932-1.965-0.77-3.694-1.826-5.617-2.808-1.734-0.886-3.098-2.308-5.055-3.37-0.214-0.116-1.064 0.833-1.686 0.562-0.472-0.207-0.234-1.513-0.562-1.686-1.111-0.584-2.553-0.086-3.37-0.562-1.645-0.957-3.437-2.781-5.616-4.493-3.188-2.502-6.61-4.227-7.863-7.302-7.952-3.47-12.68-10.162-22.468-11.795-0.715-2.655-3.347-3.394-5.055-5.056-7.461-0.062-14.689-2.954-21.905-3.932-3.094-0.419-7.425 0.859-9.549-2.246 8.052-0.05 14.272-4.393 21.344-5.056 2.252-0.211 4.719 1.726 6.74-0.562-2.821-5.604-8.042-8.809-8.986-16.288-0.381-1.305-1.435-1.937-2.247-2.809-0.013-1.323 0.968-1.653 0.562-3.37-3.46-0.481-2.876 3.952-3.932 6.179-2.425 5.117-6.723 10.596-10.672 15.165-5.026 5.816-12.892 9.952-17.974 13.48-4.945 3.433-10.351 10.713-16.85 3.932-2.387-10.316-5.326-21.011-5.056-34.263 0.086-4.193 2.051-8.6 2.247-13.479 0.058-1.449-0.75-2.505-0.562-3.933 0.833-6.315 3.5-13.074 4.493-19.097 1.261-7.651-0.998-13.941-5.617-17.412-3.173-2.385-8.31-3.496-11.795-5.055-3.646-1.631-8.323-5.702-3.37-9.548 3.284-0.288 4.032 1.958 6.74 2.247 1.508-1.728-2.702-2.515-2.247-5.055 2.286-3.268 2.056-5.754 3.933-8.987-1.087-2.658-5.012-2.477-5.617-5.617 0.51-3.672 4.711-4.751 7.863-2.808 0.965-0.721 1.128-2.242 2.247-2.809 11.658-1.373 28.548-0.84 37.07 5.617-1.685 8.8-4.229 16.74-12.356 19.097 1.993 6.851 4.653 15.92 0 21.905-1.673-2.365 0.409-7.363 0-11.795-0.257-2.774-1.921-4.966-1.686-7.302-0.137-1.736-2.795-0.949-2.247-3.37 6.976-1.637 11.646-5.578 12.919-12.918-7.495-1.157-16.17 1.392-22.467-1.685 0.986-4.215 7.882 0.844 10.672-1.685-6.906-0.957-13.665-2.062-20.782-2.808 1.194 3.112 8.146 0.467 8.425 4.493-2.488 1.318-5.536-1.033-8.425-1.123-0.786 3.024 0.421 5.756 1.686 7.863 2.213 3.689 6.956 5.45 9.548 8.425-2.97 0.946-6.688-1.813-8.425-3.932-4.852 0.996-6.431-3.903-10.11-2.247 0.299 4.293 4.909 5.468 8.425 6.74 3.68 1.331 8.554 0.975 10.672 3.932-5.089 1.958-10.573-3.146-15.727-1.123 0.812 1.623 3.99 0.878 3.932 3.37-6.498 0.133-9.316-3.415-13.48-5.617 1.192 5.548 7.602 5.879 13.48 6.74 1.218 1.236 3.523 4.177 6.179 5.617 4.146 6.704 3.58 15.258 1.685 25.276-1.111 5.873-2.29 11.237-2.809 17.411-0.837 9.986-1.16 19.901 0.562 30.331 0.904 5.479 1.594 11.627 4.493 14.041 4.224 0.391 5.783-3.029 8.986-5.055 3.372-2.132 7.44-3.573 10.11-5.617 6.878-5.262 11.689-12.762 17.412-18.535 1.081-5.274 5.596-7.691 6.179-12.356 1.315-10.528-10.057-17.325-17.974-20.782-3.168 1.139-3.997 4.616-6.179 6.74 2.897 11.403 6.241 28.388-2.247 36.509-1.88-3.031 1.662-7.854 2.247-12.356 1.806-13.906-6.562-30.852-5.055-46.058 2.009 1.752 2.284 5.708 2.808 8.987 0.469 2.93 0.3 5.989 1.124 8.425 3.358-2.979 6.548-7.044 6.739-11.795 0.157-3.868-2.161-7.282-1.685-11.233 0.637-5.283 3.937-7.66 5.055-12.918-3.241-8.069 3.646-14.327 10.672-15.727-0.044-3.394 1.816-5.819 4.494-7.864 2.371 0.624 2.198 3.792 4.493 4.494-0.833-2.538-1.992-4.748-2.809-7.302-6.838-0.428-11.099 2.795-15.727 0.562-4.071-1.965-2.528-6.234-3.932-11.233-0.568-2.022-2.425-5.031-3.932-7.863-2.22-4.172-6.357-8.708-5.617-16.289 0.261-2.666 1.632-3.959 2.247-6.74-0.236-1.262-2.98-0.015-3.37-1.124-0.494-1.805 1.852-0.77 1.685-2.247-2.258-7.118-1.173-15.531 0-23.59-0.386-2.235-3.278-1.963-3.37-4.493 1.089-1.533 2.341-2.902 4.494-3.37-0.519-2.578 1.404-2.714 1.123-5.055 3.396-5.478 10.703-4.363 16.85-5.617 6.542-1.334 9.682-4.491 18.535-3.932 13.902 0.877 29.007 11.952 32.577 24.713 0.522 1.866 0.03 4.772 0 7.302 2.776 0.53 1.894-2.601 4.494-2.247 4.289-0.146 6.48 6.182 3.37 8.425-2.054-0.275 0.871-4.78-2.247-5.055-1.218-0.095-0.255 1.992-0.562 2.809-2.223-0.96-3.904-2.461-6.74-2.809-0.752-9.572-7.158-17.221-14.042-22.467-2.392-1.823-4.477-4.187-6.74-5.055-1.39-0.533-3.079-0.058-4.493-0.562-2.997-1.068-7.091-2.976-12.918-2.247-3.358 0.42-5.859 2.522-9.549 3.37-6.128 1.408-15.997-0.532-16.851 6.74 0.079 1.606 2.343 1.027 3.932 1.124-2.935 6.239-7.773 10.574-6.178 21.343 5.274 3.305 9.558 4.004 10.109 9.548 0.11 1.103-0.8 1.286-1.123 2.809-0.277 1.309 0.249 3.007 0 3.932-0.782 2.902-3.043 5.276-2.809 7.863 0.381 4.196 4.725 5.863 5.617 9.549 1.743 0.058 1.603-1.767 3.932-1.124 4.402 1.716 7.796-0.831 10.672 1.124-2.208 3.576-12.019 0.642-15.727 2.808 0.435 5.854 7.047 0.103 9.548 1.685 1.13 4.052-7.725 6.075-11.233 3.932-0.076 1.949 2.846 0.899 2.809 2.809 0.479 3.265-1.084 3.688-0.562 6.178 1.691 8.067 13.072 0.938 19.097 0.562-3.319 8.689 7.325 14.765 5.055 24.152-2.805-0.378-0.831-5.535-2.808-6.74-1.468 1.189-2.3 4.227-2.809 6.74-0.546 2.694-0.063 6.791-1.123 10.11 0.854 4.014 5.484 8.972 3.932 11.795-2.014 0.081 0.057-1.44-1.124-2.809-1.98-1.35-4.2-2.5-6.14-3.93zm-24.15-83.125c1.055-0.667 2.135-4.195-0.562-3.932-0.77 0.758-1.07 3.921 0.56 3.932zm-0.56 17.973c4.094-0.961 3.451-6.658 5.055-10.11-1.385 0.074-2.706 0.085-3.37-0.562-0.92 2.94-3.21 7.134-1.69 10.672zm-25.28 29.207c3.37 1.731 2.75-2.078 0 0zm6.74 0.562c4.599 0.461 11.407 1.69 15.727 0.562-3.85-1.001-12.54-2.587-15.73-0.562zm107.84 10.113c-0.963-4.467-4.148-6.71-6.74-9.548-0.76 3.653 3.78 8.117 6.74 9.548zm-125.25-7.305c0.795 2.388 2.988 3.377 5.055 4.494 0.232-2.479-0.152-4.341-1.123-5.617-2.01-0.331-2.72 0.653-3.93 1.123zm34.26 2.247c-1.323 0.013-1.653-0.967-3.37-0.562-0.79 1.794 3.36 1.42 3.37 0.562zm1.69 0.562c1.157-0.34 3.901 0.906 3.37-1.124-1.49 0.009-3.31-0.311-3.37 1.124zm29.2 8.426c2.363-3.083-2.062-6.672-5.056-7.863 0.8 3.513 2.61 6.003 5.06 7.863zm47.75-2.81c1.094 3.594 6.729 5.618 6.179 8.987-2.843-1.838-4.276-5.086-6.74-7.302-0.032 2.028-1.4 2.719-1.686 4.493 2.516 4.037 4.897 8.209 8.426 11.233-0.067-3.624 1.109-6.004 1.685-8.987-1.807-3.435-4.664-5.82-5.616-10.11 3.097 2.146 3.292 7.192 6.739 8.987 1.393-4.85-4.415-7.128-5.055-11.795-0.718-0.031-0.777-0.72-1.685-0.562-0.24 2.202-1.92 2.957-2.25 5.057zm11.23 3.93c0.646-0.664 0.636-1.985 0.562-3.37-3.975-0.015-2.908-3.472-6.179-5.055 1.27 3.415 2.84 6.525 5.62 8.425zm-70.21 3.93c0.094-0.654 0.888-0.61 1.685-0.562 2.473 4.365 3.221 7.396 6.74 10.11 0.46-2.894-1.275-3.592-1.685-5.617 2.976-3.193-3.788-7.767-2.247-11.233 1.785 2.708 2.246 6.74 4.493 8.987 0.554-1.318 0.985-2.759 1.124-4.493-1.165-2.206-2.737-4.003-3.933-6.179-4.55 0.14-6.42 5.92-6.18 8.98zm-51.11-6.17c1.241 0.658 3.222 3.481 5.055 1.685-0.992-1.629-1.615-3.627-3.932-3.932-0.3 0.83-0.84 1.41-1.13 2.25zm117.95 11.79c-0.876 3.379 0.783 6.117-1.685 9.548 0.047-6.413-4.459-8.272-7.302-11.795 1.256 4.922 4.622 7.734 6.178 12.357-2.107 0.423-1.225-2.146-2.808-2.247-0.592 2.463 1.899 1.845 1.685 3.932-1.305-0.231-2.373-3.567-3.932-1.685 2.332 3.097 3.329 7.529 7.863 8.425 0.503 0.667 1.582 5.317-0.562 5.055-0.456-1.942 1.049-2.371 0-3.37-6.935-2.24-8.187-10.161-9.549-17.974-4.041 2.715 0.565 7.588 1.686 11.234 1.637 5.33 1.681 12.285 5.055 15.727v7.302c-4.04 4.55-11.542 4.002-17.974 5.055 1.974 5.299-5.102 5.017-6.74 8.425 5.836 3.697 10.509 9.014 11.233 16.289-2.486 3.068 0.515 5.806 0 10.11 1.03 1.766 1.902-1.89 2.809 0 0.199 3.007-1.56 4.057-2.246 6.178 3.509-0.423 2.795-5.067 6.178-5.616 0.455 3.076-1.876 3.366-1.685 6.178 2.615-0.026 1.74-5.834 4.493-3.932 0.181 2.265-2.503 4.58-1.123 6.179 1.501-1.308 2.306-5.673 4.493-4.493 0.282 2.341-1.642 2.478-1.123 5.055 2.432 0.186 1.383-3.11 3.932-2.809 0.274 1.773-1.013 1.983-0.562 3.932 3.831 0.648 1.945-4.419 5.616-3.932 1.592 1.548-2.911 2.75-1.123 4.494 2.599 0.936 7.676-1.559 8.986 1.685-1.052 1.069-0.062 1.411 0 2.809-2.086 2.595-7.666 1.694-11.233 2.809-1.95-0.698-5.874-4.045-7.302-1.686 6.75 3.173 15.435 4.412 19.659 10.11-5.099 0.703-8.382-3.105-12.357-1.686-2.794-2.875-5.96-3.775-10.11-5.616-1.854-0.823-3.622-1.825-5.616-2.809-5.949-2.933-10.028-4.433-16.851-5.055-12.067-1.102-23.924-7.602-30.33 0.562 2.824-0.558 6.871-2.85 10.11-1.123 0.33 2.016-3.355 0.015-2.809 2.246 2.595 0.214 4.632 0.985 6.74 1.686 0.096-0.841-0.201-2.073 0.562-2.247 7.168 4.207 14.181 11.088 24.714 10.11 0.418 1.729-1.542 1.079-1.124 2.809 14.886 15.071 33.868 26.044 60.661 29.207 10.157-14.642 9.229-40.424 9.549-64.031-6.249 2.176-12.234 4.616-20.782 4.493-1.153 1.843-1.7 4.291-4.493 4.494 2.124 3.266-3.979 2.521-1.124 5.055-5.523 5.747-0.84 20.857-3.932 27.522-2.83-12.763-1.457-25.787 0-38.756-3.744 1.155-9.993 0.879-9.548-3.932 5.022-0.904 6.103 2.135 9.548 2.809-0.366-2.629-3.034-2.957-5.055-3.932-2.728-5.139-11.087-7.632-10.11-14.604 1.982 0.077 2.512 1.607 4.493 1.685-2.167-5.134-5.243-9.359-4.493-17.412-0.009-0.928-1.558-0.314-1.685-1.123 0.854-2.328 1.421-4.944 1.123-8.425 4.626-3.612 4.196-12.28 10.11-14.604-2.613 7.634-6.334 14.061-7.863 21.343 0.611 12.682 3.913 22.673 12.356 27.522-0.101 2.722 0.741 4.501 1.123 6.74 10.225 2.309 22.724 2.504 30.331-2.809 3.277-7.77 3.49-15.438 2.808-23.028-0.224-2.489-1.603-4.915-1.123-7.302 0.551-2.744 3.176-5.149 3.37-7.864 0.563-7.849-4.907-8.669-8.986-11.795-2.455-1.881-4.102-5.232-6.74-7.864-2.957-2.949-7.732-6.208-11.795-9.548-5.416-4.453-10.219-8.125-15.728-9.548-1.49 5.12-6.51 8.19-7.88 13.49zm-7.86 3.93c-0.919-1.702-1.143-4.1-2.809-5.055 0.2 2.43 1.16 4.09 2.81 5.06zm65.71 24.15c2.141 1.043 5.318 1.048 6.179 3.37 1.037 3.269 2.348 6.265 5.055 7.863 0.471 1.215 1.454 1.916 1.123 3.932 3.31 2.834 5.561 8.071 6.74 12.357 0.346 1.254-0.234 2.648 0 3.932 0.623 3.41 2.946 5.246 3.37 7.863 0.551 3.401-0.673 6.688-1.123 8.425-0.904 3.487-1.025 8.776-0.562 12.357-0.716 2.28-3.294 2.697-3.37 5.616 0.591 0.031 0.441 0.721-0.562 0.562-1.368 0.69-0.065 3.381 0.562 3.932 0.293-3.451 1.909-5.58 3.932-7.302 1.116 0.007 0.714 1.532 2.246 1.123 8.518-31.273-3.993-59.873-27.521-69.647 1.16 2.04 2.22 4.16 3.92 5.63zm-105.59 16.29c-0.536-3.396-2.354-5.51-2.247-9.549 1.767 0.644 1.365-0.882 2.247-1.123-1.223-4.419 3.188-6.156 2.247-8.425-3.108 0.824-1.994 5.87-4.494 7.302 0.689-2.868 1.928-5.188 2.247-8.426-0.718-0.031-0.778-0.72-1.686-0.562-2.83 4.86-4 18.17 1.68 20.79zm38.75-17.41c0.229 4.077-0.54 9.151 2.808 10.11 0.124-0.438 0.471-0.653 1.124-0.562-1.152-4.289-2.255-6.574-1.686-10.11-0.54 1.57-1.49-0.82-2.24 0.56zm-6.18 3.37c-0.295 5.135-5.697 5.162-6.179 10.11 4.865 0.178 4.044-8.305 7.863-7.302-0.476 2.332-2.864 2.752-2.808 5.616 1.767 0.27 2.195-0.8 3.37-1.123 0.064-1.994-0.406-4.524 1.685-4.493 0.15 2.022-1.037 2.707-1.123 4.493 0.663 0.646 1.985 0.636 3.37 0.562-0.812-4.454 0.244-8.132-2.247-10.11-0.89 1.14-2.69 1.41-3.92 2.24zm-32.57 5.62h1.123v-1.124h-1.123v1.12zm20.78 5.61c3.515 0.553 6.503-4.252 4.493-5.616-1.08 2.29-3.87 2.87-4.49 5.62zm80.32 3.37c0.046-3.416-0.798-5.942-1.686-8.425 0.44 2.93-0.35 7.1 1.69 8.42zm-97.17 1.13c1.597-1.878-1.544-2.615-1.685-4.493-0.249-1.062 0.764-3.385-1.124-2.809-0.27 3.63 0.28 6.45 2.8 7.3zm11.79-2.25c1.666 1.658 6.13-3.594 3.37-4.494-0.09 2.53-3.18 2.06-3.37 4.49zm83.69 13.48c-0.683 1.947-2.331 3.179-2.809 5.056-0.758 2.985-0.489 7.31-0.562 11.233-0.221 11.995-0.438 22.782-1.685 32.016-0.856 6.342-3.374 11.474-1.686 16.85 4.884-1.295 8.654-3.703 10.672-7.863-2.97-2.759-6.112 0.486-8.425-1.685-0.305-4.19 5.524-4.626 6.74-8.426 0.508-1.588-0.55-3.284-0.562-5.055-0.052-7.849 1.123-19.126 0.562-28.646-0.501-8.493 0.537-17.296-1.123-24.152-0.8 3.44 0.19 6.93-1.12 10.66zm-93.8 6.18c2.667-0.648 4.595 1.303 6.178 0-1.216-2.716-1.057-6.807-3.932-7.863-1.1 2.27-3.09 3.65-2.25 7.86zm55.61-1.12c1.171-0.436-0.414-3.377-1.124-1.686 0.92 0.01 0.31 1.56 1.12 1.69zm-63.47 9.54c1.246-1.941-2.365-3.018-3.932-3.932 0.28 2.35 2.13 3.12 3.93 3.93zm0.56 0c-0.353 2.554 3.728 5.157 6.74 6.179 0.444-1.876 2.45-4.303 1.124-6.179-3.13 2.33-5.53-0.66-7.86 0zm33.14 15.73c-1.319-0.18-1.258-1.738-2.247-2.247-2.05 1.51 1.92 3.28 2.25 2.25zm106.72 15.73c-0.48-1.311 1.964-2.42 0.562-2.809-0.16 0.67-2.26 2.12-0.56 2.81z"/>
	<path d="m137.05 82.632c-0.814-2.322-3.467 0.758-6.178 0 4.095-2.458 7.487-5.618 10.672-8.987-1.46-1.512-1.694 0.687-3.37 0.562 0.251-1.621 2.417-1.328 2.808-2.808-5.407-3.97-11.161 3.453-16.85 4.493 6.189-4.853 12.922-7.455 20.782-9.548 2.956 1.752 4.496 1.469 8.987 1.685 1.99 1.193 2.529 3.836 5.617 3.932-1.026 1.97-3.64 2.351-4.493 4.494 1.504 1.648 2.958-1.503 5.055-1.124-0.816 1.993-0.25 5.366-1.685 6.74 1.875 0.372 1.631 2.862 3.37 3.37 6.892-0.223 2.743-11.486 8.987-12.357 0.456-3.885 2.343-6.145 2.247-9.548-0.205-7.232-6.737-12.891-6.74-20.782-2.111-4.067-8.211-4.146-10.672-7.863 1.127 0.191 1.757-0.115 1.685-1.124 1.202 1.078 1.835 2.324 3.932 1.124 0.826 2.919 4.846 2.643 7.864 3.37 2.671 4.069 5.449 8.031 7.863 12.357 0.092 8.911-0.035 15.427 1.685 21.905-2.818-0.197-4.159 1.083-5.055 2.808-0.002 1.72 3.881 2.441 5.055 1.124 1.049 3.307-5.193 4.16-6.74 6.74 0.183 2.796 3.474 3.221 1.124 5.617 0.697 2.549 1.633-0.97 2.808 0.562 1.153 4.562 3.888 8.918 2.809 14.042-1.718-0.407-1.652 0.969-3.37 0.562 0.75-3.019 0.208-8.537-1.685-10.672-2.13 0.623-0.033 4.258 0 6.178-1.844 5.832-6.101 9.252-7.863 15.166-0.503 1.813 1.832 0.789 2.247 1.685-1.445 2.761-2.28 5.896-0.562 8.986-0.727 2.457-2.834 3.532-4.494 5.055-6.407-1.402-14.433-5.835-21.343-1.685-0.249-2.185-0.425-4.443-1.124-6.178-1.659 0.775-1.294 3.573-1.685 5.617-2.304-0.691-2.769-3.223-3.932-5.055-1.92-1.45-4.361-2.379-5.055-5.055-10.036-6.814-19.874-13.827-36.509-14.042-0.071-4.641-1.269-10.677-0.562-16.85h2.808c-0.831-1.229-1.095-3.024-2.247-3.932 2.066-1.479 2.693 3.279 3.932 4.494 1.51 0.387 1.085-1.161 1.685-1.685 1.878 1.492 2.219 4.521 3.932 6.178 1.936-1.251-2.12-4.181 0-5.617 2.232-0.172 0.193 3.926 3.37 2.809-1.401 2.936 2.709 3.608 5.055 4.493-0.139 0.61-1.117 0.381-1.124 1.124 0.261 1.226 4.53 0.941 5.617 0 1.561-1.353 2.484 0.379 2.809-2.247 1.061 0.062 0.39 1.857 1.685 1.685 1.48 0.169 1.843-0.778 1.685-2.247 2.582-0.601 6.106-0.26 6.74-2.808 3.34-1.68 7.66-2.417 8.39-6.745zm-9.55 10.672c2.839-0.041 3.213 0.71 5.617 0 0.38-1.492 1.074-2.67 1.685-3.932-2.44-0.765-6.93 0.799-7.3 3.932zm16.29-20.782c1.776-1.033 6.22 0.603 6.178-2.247-2.69-0.873-5.96-0.813-6.18 2.247zm1.68 3.932c-1.727-2.993-5.625 0.947-7.302 1.685 1.644 1.833 0.549 2.914 2.247 4.493 0.454-1.996 4.049-0.613 3.932-0.562 1.418-0.618 3.259-3.19 5.055-4.494 2.048-1.486 4.43-2.396 5.617-4.493-4.66-0.358-6.43 2.182-9.55 3.371zm11.8 5.616c-0.464-1.587 0.792-1.455 0.562-2.809-0.718-0.031-0.778-0.72-1.685-0.562 0.01 1.49-0.31 3.308 1.13 3.371zm-9.55 15.727c1.418 0.828 2.509 1.984 4.493 2.247 1.872-1.125 2.966-3.025 3.37-5.617-3.517-0.708-1.538 4.078-5.055 3.37-2.836-6.768 2.932-12.204 2.247-16.85-0.124-0.438-0.471-0.653-1.124-0.562-2.61 4.505-4.58 9.656-3.93 17.416zm-8.42-8.987c1.817 0.694 0.429-1.817 2.247-1.123-0.107 3.477 1.013 5.727 3.37 6.74 0.59-2.967-1.534-7.732-3.932-9.549-0.48 1.406-1.55 2.206-1.69 3.932zm14.04 0c1.528-0.344 2.202-1.543 2.247-3.37-1.86 0.02-2.15 1.598-2.25 3.37zm-55.609 2.247c0.563-0.002 0.668 0.455 1.124 0.562-0.002-0.563 0.455-0.668 0.562-1.124-0.563 0.002-0.668-0.455-1.123-0.562 0 0.564-0.456 0.669-0.563 1.124zm36.509 2.808h-2.247c-0.89 2.612 2.91 1.95 2.25 0zm-21.91 3.932c1.708 0.023 3.697 0.327 3.37-1.685-1.71-0.028-2.86 0.511-3.37 1.685zm26.97 7.303c1.054 1.755 1.651 3.966 3.37 5.055-0.42-2.23-1.09-6.5-3.37-5.06zm2.24 14.6c0.826-2.639 0.428-7.561-2.809-7.863 0.4 3.16 0.67 6.45 2.81 7.86z" fill="#fff"/>
	<path d="m118.51 36.575c0.292 1.248-3.75 2.975-5.617 3.932 0.37-2.82 3.92-2.453 5.62-3.932z" fill="#fff"/>
	<path d="m131.43 60.727c-0.934-1.976-1.419-2.725 0-4.493-1.365-1.818-2.484-3.882-4.493-5.055 0.174-1.885 1.878-2.24 3.37-2.809-0.049 3.419 3.519 3.221 6.74 3.37 0.333 1.792-1.054 1.737 0 2.809 7.801-0.926 13.913-0.611 21.344 1.685-1.981 2.619-5.542 0.88-9.548 1.123-8.167 0.495-15.311 5.123-22.467 6.74-1.14 0.281 4.18-2.008 5.06-3.37z" fill="#fff"/>
	<path d="m307.8 105.66c1.424 1.011 2.111 2.756 2.809 4.493-1.69-0.74-2.05-2.82-2.81-4.49z"/>
	<path d="m311.73 101.17c1.195 2.175 2.768 3.973 3.933 6.179-0.139 1.734-0.57 3.175-1.124 4.493-2.247-2.247-2.708-6.279-4.493-8.987-1.541 3.466 5.223 8.041 2.247 11.233 0.409 2.024 2.145 2.723 1.685 5.617-3.52-2.713-4.268-5.745-6.74-10.11-0.797-0.048-1.591-0.093-1.685 0.562-0.25-3.06 1.62-8.84 6.17-8.98zm-1.13 8.98c-0.697-1.737-1.385-3.482-2.809-4.493 0.77 1.67 1.13 3.75 2.81 4.49z" fill="#fff"/>
	<path d="m198.83 113.52c1.44-4.54-0.97 3.72 0 0z" fill="#fff"/>
	<path d="m426.31 138.24c23.528 9.774 36.039 38.374 27.521 69.647-1.532 0.409-1.13-1.116-2.246-1.123-2.022 1.722-3.639 3.851-3.932 7.302-0.627-0.551-1.93-3.241-0.562-3.932 1.003 0.158 1.152-0.531 0.562-0.562 0.076-2.919 2.654-3.336 3.37-5.616-0.464-3.581-0.343-8.87 0.562-12.357 0.45-1.737 1.674-5.023 1.123-8.425-0.424-2.617-2.747-4.453-3.37-7.863-0.234-1.283 0.346-2.678 0-3.932-1.18-4.286-3.431-9.523-6.74-12.357 0.331-2.016-0.652-2.717-1.123-3.932-2.707-1.599-4.018-4.595-5.055-7.863-0.86-2.322-4.038-2.327-6.179-3.37-1.7-1.49-2.76-3.61-3.93-5.63z" fill="#fff"/>
	<path d="m353.85 201.14c0.989 0.509 0.928 2.067 2.247 2.247-0.33 1.03-4.3-0.74-2.25-2.25z" fill="#fff"/>
	<path d="m280.84 218c2.994-3.082 10.079-3.917 16.851-3.932 13.598-0.03 29.839 2.808 38.193 7.863-13.84-4.43-37.23-9.19-55.04-3.93z"/>
	<path d="m463.38 216.31c1.402 0.389-1.042 1.498-0.562 2.809-1.7-0.69 0.4-2.14 0.56-2.81z" fill="#fff"/>
	<path d="m449.34 235.97c1.69-3.75-1.46 4.48 0 0z"/>
	<path d="m183.1 73.083c0.208 4.702-4.372 4.614-3.932 9.548-1.186 0.499-1.66 1.71-3.37 1.685 1.324 6.379 12.826 22.52-1.685 20.22-1.81 0.624-1.777 3.091-1.685 5.617-1.675 0.384-3.438 0.681-3.932 2.247 2.353 4.487-1.517 8.911 1.685 12.918-0.471 10.508-13.446 8.972-19.659 4.494-3.739 0.528-5.19 0.685-9.548 1.124 0.723 8.262 3.272 13.698 7.864 19.658 3.392 4.403 7.875 6.968 12.918 10.672 2.281 1.676 3.946 3.614 6.178 5.617 4.463 4.004 10.328 7.116 11.795 11.233 1.857 5.211-1.097 10.008 0.562 16.288-0.489 1.188-2.835 0.94-2.247 4.493 4.101 1.437 4.98 4.692 3.932 10.11-2.837-0.216-2.108 3.135-3.932 3.932 0.525 7.06-0.725 12.811-0.562 17.974 9.281-7.756 14.368-19.707 20.782-30.33 6.764-1.717 11.732 1.23 16.289 3.37 5.638 8.591 15.134 13.323 19.097 23.59-6.518 12.58-13.683 24.512-20.782 36.509-2.142 0.02-3.629 2.334-5.055 0-2.639 1.854-6.188 2.799-8.987 4.494-4.355-0.58-8.681 0.477-12.918-1.686-1.042-0.531-1.248-2.169-2.247-2.809-3.603-2.307-9.874-2.094-11.234-6.74 0.094-1.787 1.317-4.135 0-5.616-3.347 3.427-9.574 9.219-14.604 7.302-0.767-2.452 2.175-1.195 1.685-3.37-4.677 1.533-15.063 3.396-18.535-1.123-4.344-5.657 3.223-10.95 6.74-15.165-4.477 0.545-6.807-1.057-10.11-1.686-0.49-1.801 0.865-1.757 1.685-2.247-2.017-3.037-8.315-1.794-11.233-3.932-0.214-3.771 3.937-3.178 5.055-5.616-1.829-0.792-3.962-1.28-6.178-1.686-2.102 2.602-1.604 7.136-1.685 11.233-2.2 0.328-1.434-2.31-2.809-2.808-1.9-0.216-0.884 2.486-3.37 1.685-3.255-15.36 3.81-26.803 9.548-36.509-6.34 3.397-10.923 13.415-17.412 18.535 1.291 6.304 2.75 11.957 2.247 17.974-2.359-0.823-1.641-4.725-3.932-5.616-0.222 6.058 5.286 14.145 3.932 21.343-0.653-0.091-1 0.124-1.124 0.562-3.199-0.732-5.036-2.827-7.302-4.494-2.793-0.172-5.153 0.089-7.302 0.562-2.056 0.338-2.611-3.712-4.493-1.686-9.479-11.678-20.779-21.533-31.454-32.016-0.738-0.572-2.071-0.551-2.809-1.123-3.409-5.204-10.45-6.774-14.042-11.795-6.08-1.308-10.949-5.312-16.85-7.863-8.352-3.61-17.971-6.067-28.083-7.302 0.505-5.524 11.449 0.548 15.727 0-1.019-0.854-2.333-1.411-2.808-2.809 3.974-10.817 10.423-19.158 16.85-27.522 0.482-1.597 0.223-1.195 0.562-1.685 2.306-2.375 3.945-5.417 6.179-7.863 0.352-0.429 0.562-0.562 0.562-0.562 6.231-4.627 14.33-7.388 21.344-11.233 1.052-1.07 3.008-2.715 5.055-3.932 0.819-1.081 0.536-0.773 1.123-1.685 5.719-5.565 13.533-6.247 19.097-11.233 1.121-3.56 2.584-6.777 4.493-9.549 23.023 1.877 37.068 12.734 49.427 25.275-1.825-5.29-4.935-9.294-10.11-11.233-7.816-9.289-22.975-14.003-36.509-15.727-2.088-6.657 0.328-13.193 0-19.658-0.116-2.273-1.468-4.537-1.685-6.74-0.741-7.518 2.219-17.357 2.808-25.837 0.35-5.033 1.214-9.905 3.932-13.48 1.099-1.447 4.32-3.05 6.74-5.617 4.785-5.075 8.796-9.899 16.851-12.356 4.698-1.434 8.622 0.711 14.042 1.123 2.87 0.218 5.867-0.678 8.425-0.562 5.59 0.255 10.298 3.089 15.165 5.055 10.822-4.177 19.112 4.625 17.412 14.604 5.081 5.638 7.269 17.404 5.617 26.398-0.07 2.714 2.57 2.703 2.79 5.093zm-69.08-46.057c-0.491 0.342-1.648 2.203-2.247 2.808-3.958 4.006-12.851 9.62-10.672 14.604 1.23-1.099 2.241-1.667 5.055-2.247-1.356-2.564 2.155-2.83 2.809-4.494 0.368-0.936-0.978-1.415-0.562-2.247 0.132-0.264 1.472-0.187 1.685-0.562 0.697-1.229-0.393-3.665 1.685-3.932 1.909 0.969 4.117 0.391 6.179 0 1.054 0.993-0.668 1.64 0.562 2.808 2.859-2.199 10.492-1.975 11.233-4.493 2.624 0.947 8.85 1.117 7.863-3.37-7.95-0.477-16.49-3.815-23.59 1.125zm41 2.808c3.532 0.212 4.796 2.693 8.987 2.247 0.039-1.646 2.139-1.23 1.685-3.37-3.7 1.112-7.91 0.227-10.68 1.123zm-12.36 1.686h1.124c0.031-0.718 0.72-0.778 0.562-1.685h-1.685v1.685zm-15.72 2.246c-2.138 0.076-6.113 0.075-6.74 2.247 2.929 0.084 5.996-1.456 10.11-1.685-0.262 3.376 2.523 0.213 3.932 1.685-1.053 1.069-0.062 1.411 0 2.808-3.887 2.853-11.93 1.551-14.042 6.178 8.322 1.314 14.066-3.583 20.22-6.178-0.356-1.89-2.735-1.758-2.247-4.493 0.438-0.124 0.653-0.471 0.562-1.124h3.932c-2.73-3.072-10.49 0.376-15.72 0.562zm23.59-0.561c-1.003 0.002-3.268-1.513-3.932 0 1.46-0.466 3.08 1.698 3.93 0zm-21.91 56.167c-0.634 2.548-4.158 2.208-6.74 2.808 0.158 1.469-0.205 2.416-1.685 2.247-1.295 0.172-0.624-1.623-1.685-1.685-0.325 2.625-1.248 0.894-2.809 2.247-1.086 0.941-5.355 1.226-5.617 0 0.007-0.742 0.984-0.514 1.124-1.124-2.346-0.885-6.457-1.558-5.055-4.493-3.177 1.118-1.138-2.981-3.37-2.809-2.12 1.436 1.936 4.365 0 5.617-1.713-1.657-2.054-4.686-3.932-6.178-0.6 0.524-0.175 2.072-1.685 1.685-1.238-1.214-1.865-5.973-3.932-4.494 1.151 0.908 1.416 2.703 2.247 3.932h-2.808c-0.708 6.173 0.491 12.209 0.562 16.85 16.635 0.215 26.473 7.227 36.509 14.042 0.694 2.676 3.135 3.605 5.055 5.055 1.163 1.833 1.627 4.364 3.932 5.055 0.391-2.043 0.026-4.841 1.685-5.617 0.699 1.735 0.875 3.993 1.124 6.178 6.911-4.15 14.937 0.283 21.343 1.685 1.659-1.523 3.767-2.598 4.494-5.055-1.718-3.09-0.884-6.226 0.562-8.986-0.415-0.896-2.75 0.128-2.247-1.685 1.763-5.914 6.019-9.333 7.863-15.166-0.033-1.92-2.13-5.556 0-6.178 1.893 2.135 2.436 7.653 1.685 10.672 1.718 0.407 1.652-0.969 3.37-0.562 1.08-5.124-1.656-9.479-2.809-14.042-1.175-1.532-2.111 1.987-2.808-0.562 2.351-2.396-0.94-2.82-1.124-5.617 1.547-2.58 7.79-3.433 6.74-6.74-1.174 1.317-5.058 0.596-5.055-1.124 0.896-1.725 2.237-3.005 5.055-2.808-1.72-6.478-1.593-12.995-1.685-21.905-2.414-4.326-5.192-8.288-7.863-12.357-3.018-0.727-7.038-0.451-7.864-3.37-2.097 1.201-2.729-0.045-3.932-1.124 0.072 1.009-0.558 1.314-1.685 1.124 2.461 3.717 8.561 3.796 10.672 7.863 0.003 7.892 6.536 13.55 6.74 20.782 0.096 3.404-1.791 5.663-2.247 9.548-6.244 0.871-2.095 12.134-8.987 12.357-1.739-0.508-1.495-2.999-3.37-3.37 1.435-1.374 0.869-4.748 1.685-6.74-2.098-0.38-3.551 2.771-5.055 1.124 0.853-2.143 3.467-2.524 4.493-4.494-3.087-0.095-3.626-2.739-5.617-3.932-4.491-0.216-6.031 0.067-8.987-1.685-7.86 2.094-14.592 4.695-20.782 9.548 5.689-1.041 11.443-8.463 16.85-4.493-0.392 1.48-2.557 1.188-2.808 2.808 1.676 0.125 1.91-2.074 3.37-0.562-3.185 3.369-6.577 6.529-10.672 8.987 2.711 0.758 5.364-2.322 6.178 0-0.7 4.334-5.02 5.071-8.4 6.746zm-15.72-48.866c1.867-0.957 5.908-2.684 5.617-3.932-1.71 1.48-5.26 1.113-5.62 3.932zm-11.8 7.864c-0.027 1.712 0.51 2.86 1.685 3.37 1.036-4.207 4.772-5.713 6.179-9.548-3.88 0.515-4.83 6.652-7.86 6.178zm25.28 15.727c7.157-1.617 14.301-6.245 22.467-6.74 4.006-0.243 7.567 1.496 9.548-1.123-7.431-2.296-13.543-2.611-21.344-1.685-1.054-1.071 0.333-1.017 0-2.809-3.221-0.149-6.79 0.049-6.74-3.37-1.491 0.568-3.195 0.924-3.37 2.809 2.009 1.173 3.128 3.237 4.493 5.055-1.419 1.768-0.934 2.517 0 4.493-0.89 1.362-6.21 3.651-5.06 3.37zm-23.59-3.932c2.549 0.302 1.5-2.994 3.932-2.809 1.331 2.04 1.213 5.527 3.37 6.74 0.452-3.106 0.38-6.734 1.124-9.548-0.475-1.211-3.581 0.21-3.932-1.124-0.032-0.343-0.084-0.665-0.562-0.562-0.45 3.295-4.39 3.102-3.93 7.303zm11.79 9.548c-1.252-1.182-1.444-3.424-2.809-4.493-1.48 2.03 0.91 4.074 2.81 4.493zm49.43 3.932c0.13-1.485-3.472-2.085-3.932-1.123 0.94 0.745 1.88 1.488 3.93 1.123zm-56.17 5.055c1.388-0.211 1.662 3.508 2.809 1.685-1.218 0.095-0.255-1.992-0.562-2.809-1.28-0.156-2.11 0.136-2.25 1.124zm15.17 0.562c1.424 0.595 3.202-1.183 1.685-1.685-0.07 1.061-1.87 0.39-1.69 1.685zm-6.18 1.685c1.66-0.399 3.964-0.154 4.493-1.685-0.438-0.124-0.653-0.47-0.562-1.123-1.77 0.479-3.45 1.042-3.93 2.808zm-5.62-1.123c-0.646 3.642 1.384 4.606 2.247 6.74 0.979-1.902 4.126 1.624 4.494-1.123-4.38 0.352-1.44-8.645-6.74-5.617zm6.74 8.986h4.493c-0.194-1.678-1.508-2.236-2.808-2.808 0.43 1.919-2.28 0.713-1.68 2.808zm81.44 115.14c-3.904 10.513-9.889 18.943-15.727 27.521 5.85 0.142 8.419 3.563 12.356 5.617 0.051-2.402 1.125-4.114 0-6.179 1.116-0.936 0.714 0.051 2.247 0 1.054-1.071-0.333-1.016 0-2.809 1.587 0.465 1.455-0.791 2.808-0.562 0.159-1.71-1.799-2.184-0.562-3.37 1.644-0.146 1.726 1.271 3.37 1.124 0.146-1.645-1.27-1.726-1.124-3.37 0.724-0.774 2.44-0.557 3.932-0.562 1.804-2.913 4.061-9.318 7.864-6.74 0.571-3.272-0.312-4.507 0.562-7.302-4.47-1.89-8.79-3.94-15.73-3.37zm26.4 21.91c0.377 3.473-1.429 5.185 0 8.425 1.013-3.293 5.026-3.586 5.055-7.863-1.29-0.58-4.3-1.14-5.05-0.56z"/>
	<path d="m142.66 33.205h-3.932c0.091 0.653-0.124 1-0.562 1.124-0.489 2.735 1.89 2.603 2.247 4.493-6.154 2.596-11.898 7.493-20.22 6.178 2.112-4.627 10.155-3.325 14.042-6.178-0.062-1.397-1.053-1.739 0-2.808-1.409-1.472-4.194 1.691-3.932-1.685-4.114 0.229-7.181 1.769-10.11 1.685 0.627-2.172 4.603-2.171 6.74-2.247 5.23-0.187 12.99-3.635 15.72-0.562z" fill="#fff"/>
	<path d="m331.95 42.191c3.207 1.868 5.895 3.194 10.672 2.247-0.171 1.481 1.173 1.449 2.247 1.685-1.194 1.615-2.457 3.16-5.056 3.37 5.313 0.678 10.46 1.523 11.795 6.178 1.146 0.98 1.102-0.418 2.247 0.562v2.808c1.938-1.011 2.611-0.337 2.247 2.247 1.689 0.566 0.995-1.251 1.123-2.247 2.115 0.29 2.558 0.71 3.37-1.123 0.762 0.174 0.466 1.406 0.562 2.247 1.477 0.167 0.442-2.179 2.247-1.685 0.086 1.397-0.883 1.739-1.124 2.808-4.66-1.103-3.891 3.224-6.74 3.932-0.418-1.729 1.542-1.08 1.124-2.809-2.701-0.455-2.029 2.464-5.056 1.685-1.525-2.28-0.079-4.528-0.562-6.178-2.143-7.336-11.277-6.84-19.097-7.302 1.473-3.177-1.147-3.093-1.685-5.617 1.85-0.397 2.51 0.262 1.69-2.808z"/>
	<path d="m197.71 123.07c9.379 0.918 20.389 0.207 27.522 3.37 1.566 3.236-0.785 5.942-1.123 8.987 0.549 1.794 4.575-0.208 6.74 1.124 5.403 3.873 0.34 12.672-1.123 17.973 5.79 3.487 5.031 12.963-1.685 15.165-0.582-3.056 2.171-4.757 2.247-7.302 0.075-2.544-1.663-3.763-2.247-6.178-0.645-2.667 0.895-5.247-1.124-7.302 3.223-0.335 2.572-4.543 3.37-7.302-1.486-2.727-5.252-1.824-8.425-1.685-0.468 6.647-6.903 7.326-6.179 15.165 1.268-0.792 0.461-3.658 2.809-3.369-0.555 3.002-0.215 6.899-3.37 7.301-0.043 3.274 4.464 3.55 2.247 7.303-2.864-0.497-1.876-4.947-5.055-2.247 1.209-6.173-0.076-12.373 2.247-17.412 0.965-2.095 3.984-3.496 5.055-5.617 1.644-3.254 0.899-6.12 2.809-8.987-1.278-1.602-3.292 0.79-5.617 0 0.228 1.083 2.177 0.444 1.685 2.247-2.319 4.792-8.085 7.325-10.672 12.357-1.849 3.596-0.481 8.526-3.932 11.795 0.074 1.385 0.085 2.706-0.562 3.37 0.097 1.407-1.257 1.363-1.685 2.247-0.641 12.585 1.715 18.842 1.124 30.892 12.57 0.536 18.127 8.085 23.029 16.289-7.288-6.006-11.932-14.654-25.837-14.042 0.896-11.068-2.356-20.138-1.124-29.769-0.112-2.135-2.362-2.132-2.247-4.493 1.245-4.747 7.161-4.821 7.302-10.672-3.38-1.645-3.755-0.478-7.864-1.124-0.503-1.181-0.873-2.497-1.685-3.37-5.657 0.625-15.347-15.083-11.233-20.782 2.243-3.107 8.955-2.787 13.48-2.808-1.231 3.312-6.966 0.541-9.549 3.37 2.583 0.035 7.399 0.05 10.11 0.562 0.965 0.72 0.011 3.358 1.685 3.37 2.287-0.193-0.023-1.475 1.124-2.809 4.521-1.36 10.571-1.372 15.727-0.562 2.469 0.388 5.206 3.11 6.74 0.562-3.546-4.879-14.51-2.341-21.344-3.932-2.314-0.442-1.055 2.689-3.37 2.247 0.47-2.04-1.02-2.99-0.03-3.93zm-0.56 11.8c-2.565 2.586-8.44-0.292-11.795-0.562 2.135 8.724 8.51 13.208 19.658 12.918 0.927-2.354 2.839-3.77 1.685-6.74 1.665-2.267 6.705-1.159 7.302-4.494-1.988 0.678-4.384-0.037-6.74 0-2.535 0.04-6.292 2.184-7.302-1.123 0.143-2.125 7.445-0.015 5.617-2.247-4.561 1.331-13.258-1.659-18.536 0 3.03 1.08 8.73-0.5 10.11 2.24zm11.23-1.13c1.144 0.48 3.49-0.489 1.685-1.124-0.16 1.17-1.51-0.83-1.68 1.12z"/>
</g>
<metadata><rdf:RDF><cc:Work><dc:format>image/svg+xml</dc:format><dc:type rdf:resource="http://purl.org/dc/dcmitype/StillImage"/><cc:license rdf:resource="http://creativecommons.org/licenses/publicdomain/"/><dc:publisher><cc:Agent rdf:about="http://openclipart.org/"><dc:title>Openclipart</dc:title></cc:Agent></dc:publisher><dc:title>coffee couple</dc:title><dc:date>2006-10-13T06:34:44</dc:date><dc:description>I call it coffee couple but they could just as easily be drinking tea.  A man and a woman enjoying a cup.</dc:description><dc:source>http://openclipart.org/detail/564/coffee-couple-by-johnny_automatic</dc:source><dc:creator><cc:Agent><dc:title>johnny_automatic</dc:title></cc:Agent></dc:creator><dc:subject><rdf:Bag><rdf:li>black &amp; white</rdf:li><rdf:li>clip art</rdf:li><rdf:li>clipart</rdf:li><rdf:li>coffee</rdf:li><rdf:li>contour</rdf:li><rdf:li>couple</rdf:li><rdf:li>dining</rdf:li><rdf:li>man</rdf:li><rdf:li>outline</rdf:li><rdf:li>people</rdf:li><rdf:li>tea</rdf:li><rdf:li>vintage</rdf:li><rdf:li>woman</rdf:li></rdf:Bag></dc:subject></cc:Work><cc:License rdf:about="http://creativecommons.org/licenses/publicdomain/"><cc:permits rdf:resource="http://creativecommons.org/ns#Reproduction"/><cc:permits rdf:resource="http://creativecommons.org/ns#Distribution"/><cc:permits rdf:resource="http://creativecommons.org/ns#DerivativeWorks"/></cc:License></rdf:RDF></metadata></svg>
