<svg width="377" height="429" viewBox="0 0 377 429" fill="none" xmlns="http://www.w3.org/2000/svg">
<path fill-rule="evenodd" clip-rule="evenodd" d="M231.257 32.7978C225.878 50.3494 211.574 60.7221 196.51 70.4804C190.155 66.678 180.956 65.1666 173.846 61.9711C172.435 57.8411 171.827 53.0623 170.826 48.5995C188.363 42.7217 205.899 20.5983 231.258 32.8004L231.257 32.7978Z" fill="white"/>
<path fill-rule="evenodd" clip-rule="evenodd" d="M152.7 58.3251C172.731 63.6822 190.674 70.7209 207.089 78.9891C200.682 87.6095 199.004 100.035 190.47 106.948C186.208 99.889 192.497 91.844 195.002 86.2826C183.681 77.1577 170.021 69.9173 152.7 65.6186C152.694 63.1879 152.694 60.7573 152.694 58.3267L152.7 58.3251Z" fill="white"/>
<path fill-rule="evenodd" clip-rule="evenodd" d="M208.597 85.0673C226.095 98.3904 193.058 131.104 196.511 155.571C180.633 150.849 188.637 132.636 191.977 121.534C196.164 107.628 204.65 95.8421 208.596 85.0698L208.597 85.0673Z" fill="white"/>
<path fill-rule="evenodd" clip-rule="evenodd" d="M34.8589 89.9285C39.4834 90.6659 42.7311 92.5085 46.9452 93.574C48.0092 100.417 50.9737 105.73 49.9668 114.241C46.215 114.058 43.6975 114.866 42.4125 116.672C35.1496 111.576 36.8481 99.2699 34.8589 89.9295V89.9285Z" fill="white"/>
<path fill-rule="evenodd" clip-rule="evenodd" d="M133.061 134.903C135.653 124.023 139.99 114.546 151.189 110.591C149.865 117.801 145.438 132.584 133.063 134.902L133.061 134.903Z" fill="white"/>
<path fill-rule="evenodd" clip-rule="evenodd" d="M154.207 183.526C153.376 180.83 157.092 181.795 157.229 179.878C153.31 179.307 156.231 176.742 151.186 173.801C155.354 161.611 149.562 124.037 166.293 114.243C174.826 115.077 177.363 120.733 178.379 127.613C175.424 128.64 167.76 129.555 161.761 127.613C167.038 139.371 168.562 159.914 161.761 171.372C166.03 174.419 178.641 170.757 182.911 173.803C179.694 184.27 163.082 198.461 154.203 183.521L154.207 183.526ZM163.276 176.234C162.794 179.053 163.519 180.901 164.787 182.311C170.637 181.059 171.007 182.947 175.361 181.096V177.448C171.079 177.229 168.92 174.676 163.271 176.23L163.276 176.234Z" fill="white"/>
<path fill-rule="evenodd" clip-rule="evenodd" d="M256.938 121.532C290.793 114.07 320.974 138.303 302.262 156.783C296.314 162.66 279.347 166.862 266.004 171.37C251.725 176.195 239.483 181.11 231.257 183.526C236.395 160.893 292.866 168.227 296.217 145.843C297.635 136.376 287.962 127.292 276.578 125.179C269.288 123.824 259.009 127.207 256.945 121.531L256.938 121.532Z" fill="black"/>
<path fill-rule="evenodd" clip-rule="evenodd" d="M169.318 130.042H175.36C179.956 140.966 167.6 160.156 176.871 167.724C174.288 171.37 171.374 169.075 166.297 168.939C169.761 162.059 165.55 140.525 169.318 130.043L169.318 130.042Z" fill="white"/>
<path fill-rule="evenodd" clip-rule="evenodd" d="M133.061 148.274V142.197C136.217 141.68 137.059 143.029 139.102 143.412C138.919 146.505 136.905 148.125 133.061 148.273V148.274Z" fill="white"/>
<path fill-rule="evenodd" clip-rule="evenodd" d="M178.381 154.353C180.832 157.65 180.328 163.324 181.402 167.726C177.4 165.153 177.336 157.535 178.381 154.355V154.353Z" fill="white"/>
<path fill-rule="evenodd" clip-rule="evenodd" d="M182.916 156.784C187.186 155.779 186.831 158.497 190.47 158.001C190.616 162.98 190.262 167.557 184.427 167.725C184.357 163.725 181.875 161.672 182.913 156.785L182.916 156.784Z" fill="white"/>
<path fill-rule="evenodd" clip-rule="evenodd" d="M22.7735 202.976C22.0819 199.177 26.0015 199.088 30.3259 199.328C30.5184 201.51 28.4772 201.893 28.8154 204.19C27.4721 203.248 25.405 202.886 22.7735 202.978V202.976Z" fill="black"/>
<path fill-rule="evenodd" clip-rule="evenodd" d="M312.842 329.39C326.026 334.045 306.768 345.829 297.732 340.332C304.319 337.937 314.167 338.156 312.843 329.391L312.842 329.39Z" fill="white"/>
<path fill-rule="evenodd" clip-rule="evenodd" d="M337.009 364.642C346.594 365.846 348.378 373.323 352.117 379.229C345.036 376.589 335.169 370.505 337.012 364.64L337.009 364.642Z" fill="white"/>
<path fill-rule="evenodd" clip-rule="evenodd" d="M151.186 97.2204C165.07 99.0161 173.538 105.167 181.401 111.807C183.896 104.9 185.547 97.3142 188.956 91.1408C180.49 83.3663 157.59 77.8671 142.955 75.0547C140.401 66.6061 149.76 63.2409 151.186 53.4598C151.807 51.9448 152.004 50.916 153.873 49.4123C155.349 47.8296 155.349 47.9085 158.74 46.1663C177.63 40.584 214.369 4.99428 238.811 18.2089C266.51 33.1871 215.671 60.6941 205.574 71.6931C213.847 76.3811 215.306 86.5526 220.681 93.5714C208.681 111.322 204.15 132.278 204.064 161.645C196.369 167.66 185.636 167.477 182.913 175.015C181.678 178.438 184.369 182.187 182.913 185.957C178.303 197.898 154.603 220.03 134.569 204.189C122.532 194.672 117.792 161.835 120.972 140.983C124.189 119.937 140.668 105.802 151.194 97.226L151.186 97.2204ZM182.916 173.803C178.646 170.757 166.035 174.419 161.766 171.372C168.567 159.914 167.043 139.371 161.766 127.613C167.764 129.555 175.429 128.64 178.384 127.613C177.367 120.733 174.83 115.076 166.298 114.243C149.567 124.039 155.358 161.613 151.19 173.801C156.235 176.742 153.315 179.307 157.233 179.878C157.096 181.795 153.381 180.83 154.212 183.526C163.091 198.466 179.703 184.275 182.92 173.803H182.916ZM155.721 122.75C157.059 119.409 165.743 115.333 160.253 113.025C151.979 125.604 143.19 148.707 151.188 166.509C151.86 151.569 151.283 133.795 155.717 122.748L155.721 122.75ZM172.593 48.9949C177.247 54.0305 176.265 57.8589 173.845 61.9731C180.954 65.1686 190.153 66.6795 196.508 70.4824C211.572 60.7242 226.233 49.4515 231.612 31.9C206.254 19.6948 190.129 43.1115 172.593 48.9919V48.9949ZM150.135 65.721C170.304 70.727 179.403 73.7146 194.998 86.2846C192.493 91.846 186.204 99.8911 190.466 106.95C199 100.037 200.678 87.6115 207.085 78.9912C190.67 70.7229 170.363 63.4009 150.331 58.0438C150.135 60.5 150.135 63.2924 150.135 65.723V65.721ZM191.979 121.534C188.638 132.636 180.634 150.849 196.512 155.571C193.059 131.105 226.096 98.3919 208.598 85.0667C204.653 95.839 196.166 107.625 191.98 121.531L191.979 121.534ZM125.505 144.633C121.038 180.999 142.716 225.537 172.339 192.038C167.361 194.09 162.68 192.757 157.231 192.038C138.846 173.73 140.488 121.366 164.785 109.381C168.648 109.205 173.04 114.763 175.359 111.812C170.816 105.742 163.789 101.672 149.678 103.302C142.243 111.602 128.126 123.282 125.504 144.633H125.505ZM166.297 168.939C171.375 169.075 174.289 171.37 176.872 167.725C167.6 160.157 179.957 140.967 175.36 130.042H169.319C165.551 140.524 169.762 162.058 166.298 168.938L166.297 168.939ZM181.402 167.726C180.328 163.324 180.833 157.65 178.381 154.353C177.336 157.533 177.4 165.151 181.402 167.724V167.726ZM184.423 167.726C190.259 167.558 190.612 162.98 190.466 158.002C186.827 158.499 187.181 155.781 182.912 156.785C181.88 161.672 184.362 163.725 184.426 167.725L184.423 167.726Z" fill="black"/>
<path fill-rule="evenodd" clip-rule="evenodd" d="M151.186 166.506C143.188 148.704 151.977 125.601 160.251 113.022C165.741 115.329 157.057 119.405 155.719 122.747C151.292 133.799 151.868 151.573 151.191 166.508L151.186 166.506Z" fill="white"/>
<path fill-rule="evenodd" clip-rule="evenodd" d="M149.679 103.3C163.79 101.67 170.817 105.741 175.36 111.81C173.042 114.761 168.649 109.203 164.786 109.379C140.489 121.364 138.847 173.727 157.233 192.036C162.682 192.755 167.362 194.088 172.341 192.036C142.718 225.536 121.04 180.997 125.506 144.631C128.128 123.28 142.245 111.6 149.68 103.3H149.679ZM133.061 137.339C146.293 133.156 154.13 118.967 152.699 106.95C141.053 112.254 129.925 124.158 133.06 137.34L133.061 137.339ZM139.103 139.769C131.329 138.78 129.864 142.869 130.039 148.277C138.45 151.813 144.929 145.036 139.102 139.767L139.103 139.769ZM131.547 158.002C136.85 157.465 137.953 155.44 136.078 151.923H130.036C129.555 154.74 130.283 156.59 131.55 158.002H131.547ZM136.082 190.818C139.011 192.512 138.335 197.107 140.614 199.326C144.787 196.973 163.922 200.3 157.233 193.249C153.523 194.491 140.743 196.615 140.614 193.249H152.7C152.421 188.683 138.634 185.932 136.082 190.818V190.818Z" fill="white"/>
<path fill-rule="evenodd" clip-rule="evenodd" d="M152.7 106.948C154.131 118.966 146.294 133.155 133.062 137.337C129.927 124.155 141.054 112.251 152.701 106.947L152.7 106.948ZM151.187 110.591C139.988 114.546 135.651 124.024 133.058 134.903C145.433 132.585 149.86 117.802 151.184 110.592L151.187 110.591Z" fill="black"/>
<path fill-rule="evenodd" clip-rule="evenodd" d="M130.04 148.274C129.865 142.865 131.329 138.777 139.103 139.766C144.93 145.04 138.451 151.818 130.04 148.276L130.04 148.274ZM139.103 143.413C137.059 143.03 136.217 141.681 133.061 142.198V148.275C136.905 148.127 138.919 146.507 139.103 143.414V143.413Z" fill="black"/>
<path fill-rule="evenodd" clip-rule="evenodd" d="M46.945 162.863C50.2635 164.446 45.159 169.432 45.4345 172.588C40.5009 169.244 38.9037 182.288 37.8802 188.39C21.3791 163.449 39.7523 131.858 57.5208 119.099C34.0543 119.198 8.94191 157.157 15.2194 189.603C17.1852 199.77 27.7161 204.652 25.7952 212.698C11.9996 203.41 6.74429 192.306 9.17624 172.587C11.0268 157.576 23.7648 145 25.7952 132.473C28.8567 113.572 15.4619 99.648 12.1978 82.6346C30.7351 78.1009 40.6972 66.6683 60.5424 63.1859C46.7816 69.9428 34.2127 77.6581 19.7514 83.8499C24.2284 92.4035 19.5519 108.321 31.8365 110.592C32.4356 113.505 24.9554 109.917 27.3038 114.24C28.5837 117.801 32.1683 113.513 34.858 114.24C34.3216 105.351 32.9384 97.145 30.3253 89.928C38.024 81.1232 56.1281 74.2318 65.0731 70.4793C58.2827 77.9807 45.3218 80.5183 36.3691 86.281C35.9068 89.0847 40.734 87.6314 40.9018 89.928C51.7576 86.9108 61.5094 81.0712 73.7066 76.0061C83.1494 73.79 93.6315 72.7576 96.9203 72.5237C133.063 69.955 143 73.6443 142.955 75.0563C131.282 73.9485 106.299 75.0563 92.0019 77.9053C78.8808 81.3097 53.6461 90.6154 51.477 93.5734C51.1204 101.559 55.396 105.818 56.0097 113.023C80.5654 121.88 56.5828 154.064 42.4123 161.645C52.0597 158.043 45.1356 163.524 39.3907 168.938C43.76 168.403 46.2774 166.38 46.9443 162.864L46.945 162.863ZM42.4129 116.671C43.6979 114.865 46.2154 114.057 49.9672 114.239C50.9741 105.729 48.0096 100.416 46.9456 93.5729C42.7315 92.5069 39.4838 90.6643 34.8593 89.9275C36.8479 99.2679 35.1494 111.574 42.4129 116.67V116.671Z" fill="black"/>
<path fill-rule="evenodd" clip-rule="evenodd" d="M296.223 334.256C280.378 321.338 233.089 326.003 228.236 307.515C220.389 277.591 288.932 272.207 288.667 245.521C288.491 227.872 252.266 244.48 243.345 249.169C220.218 261.321 200.636 278.272 178.379 290.497C162.116 299.43 137.723 307.918 120.97 295.359C111.965 275.279 128.393 252.154 145.142 249.169C146.767 254.314 137.18 258.738 133.057 264.971C127.911 272.747 124.071 290.99 140.609 292.929C152.439 294.316 175.637 279.437 182.911 275.91C210.84 262.372 247.205 225.522 285.642 232.151C292.437 233.323 298.386 238.228 299.24 240.659C306.042 260.078 268.36 272.262 253.917 283.203C249.744 286.367 238.084 296.738 238.81 302.653C239.843 311.087 252.843 312.853 269.025 316.023C288.626 319.864 300.691 323.643 317.37 328.179C336.656 342.893 342.704 361.335 355.139 380.451C342.507 381.294 340.005 373.988 335.498 368.295C315.154 365.216 311.268 348.892 294.708 342.768C294.715 339.538 294.132 335.823 296.215 334.259L296.223 334.256ZM352.12 379.23C348.381 373.324 346.596 365.847 337.012 364.643C335.163 370.508 345.03 376.592 352.117 379.232L352.12 379.23ZM297.73 340.335C306.767 345.833 326.025 334.048 312.84 329.393C314.163 338.153 304.315 337.934 297.729 340.334L297.73 340.335ZM337.009 363.429C337.347 362.484 337.05 361.03 338.519 360.998V356.135C333.407 352.146 329.961 346.813 324.923 342.765C321.431 343.086 337.234 354.471 335.498 357.35C329.063 351.995 324.896 344.811 317.37 340.334C316.429 343.635 324.201 346.025 320.39 347.627C317.739 345.708 317.256 342.045 312.838 341.547C310.08 343.383 304.368 342.838 302.262 345.195C312.408 351.213 319.222 359.911 329.455 365.859C330.735 364.05 334.319 364.101 337.005 363.429H337.009Z" fill="black"/>
<path fill-rule="evenodd" clip-rule="evenodd" d="M329.46 365.859C319.226 359.911 312.412 351.213 302.266 345.195C304.373 342.838 310.084 343.382 312.843 341.547C317.261 342.045 317.743 345.708 320.394 347.627C324.206 346.024 316.434 343.635 317.374 340.334C324.9 344.81 329.068 351.995 335.503 357.35C337.239 354.471 321.435 343.086 324.927 342.765C329.965 346.813 333.411 352.146 338.524 356.135V360.998C337.055 361.03 337.351 362.484 337.013 363.429C334.334 364.101 330.75 364.05 329.47 365.859H329.46Z" fill="white"/>
<path fill-rule="evenodd" clip-rule="evenodd" d="M130.04 151.923H136.082C137.956 155.44 136.853 157.465 131.551 158.002C130.278 156.59 129.55 154.74 130.037 151.923H130.04Z" fill="black"/>
<path fill-rule="evenodd" clip-rule="evenodd" d="M175.36 177.447V181.095C171.007 182.945 170.637 181.058 164.786 182.309C163.519 180.9 162.793 179.052 163.276 176.232C168.931 174.683 171.091 177.236 175.366 177.45L175.36 177.447Z" fill="black"/>
<path fill-rule="evenodd" clip-rule="evenodd" d="M152.7 193.248H140.614C140.743 196.615 153.523 194.49 157.233 193.248C163.922 200.3 144.787 196.973 140.614 199.325C138.335 197.106 139.011 192.511 136.082 190.817C138.634 185.936 152.421 188.687 152.7 193.253V193.248Z" fill="black"/>
<path fill-rule="evenodd" clip-rule="evenodd" d="M37.1149 187.439C45.2486 195.661 33.4613 206.946 22.2236 204.02C22.7373 205.066 21.8519 210.302 26.0001 212.528C31.902 215.694 39.8464 216.552 52.9517 212.291C63.4015 208.895 68.7024 204.762 74.1002 196.937C84.9509 181.202 90.0567 162.487 83.5436 144.385C80.5955 136.194 75.6746 126.024 63.8708 118.426C65.5567 124.347 68.5802 133.196 69.3484 139.258C70.0583 144.865 72.413 156.007 70.9526 161.48C68.1831 171.865 65.1786 181.498 54.8207 188.706C50.668 191.597 41.0877 190.543 36.7216 187.439" fill="black"/>
<path fill-rule="evenodd" clip-rule="evenodd" d="M152.7 58.3251C137.712 56.1697 120.924 56.3801 107.547 57.8579C94.1691 59.3356 71.8737 62.2901 65.0528 64.4007C61.7868 65.4122 49.8398 68.8329 49.8398 68.8329C49.8398 68.8329 50.3161 65.9157 59.2827 62.923C65.2675 60.926 79.6876 58.6604 83.1513 58.0693C87.5256 57.3223 109.716 54.2705 119.088 54.2705C123.548 54.2705 140.859 54.058 144.794 53.8476C148.728 53.6371 151.19 53.4633 151.19 53.4633L152.401 57.6469" fill="black"/>
<path fill-rule="evenodd" clip-rule="evenodd" d="M74.8838 75.5332C78.9149 74.1248 84.1898 72.7856 88.4261 71.7563C93.1367 70.6139 98.8328 69.7975 103.606 68.8849C109.278 67.8016 114.17 67.1228 119.987 66.6377C127.214 66.0354 128.314 65.7872 133.706 65.4025C137.954 65.0993 139.608 65.561 145.51 65.8774C146.1 67.4601 145.94 68.1155 145.578 70.4691C145.239 72.6776 146.143 74.2084 142.733 74.2272C137.69 74.2542 132.609 74.6084 127.557 74.457C124.872 74.378 122.156 74.5732 119.479 74.4076C116.839 74.2445 113.125 74.4647 110.492 74.2669C104.02 73.7834 99.4015 75.3651 93.1291 76.0326C88.0512 76.5743 80.0802 78.3267 75.474 75.6912" fill="black"/>
<path fill-rule="evenodd" clip-rule="evenodd" d="M142.757 254.713C149.249 248.54 155.21 242.468 161.053 236.403C169.184 227.962 172.596 223.952 178.891 218.041C191.051 206.623 197.251 201.792 211.941 192.715C213.663 191.652 220.511 188.053 222.432 187.23C225.384 185.964 227.594 185.066 230.302 184.274C241.845 180.899 253.163 170.234 255.483 166.969C247.608 168.458 220.705 177.72 214.039 181.531C210.576 183.513 205.647 185.33 200.138 189.13C192.989 194.061 191.727 195.973 188.071 198.627C180.005 204.484 178.103 205.592 171.808 211.923C163.906 219.869 155.511 229.115 148.724 237.672C145.8 241.36 142.926 244.14 139.609 247.59C137.46 249.826 135.002 251.856 133.363 254.342C136.385 255.255 139.589 254.723 141.97 254.713" fill="black"/>
<path fill-rule="evenodd" clip-rule="evenodd" d="M248.142 121.807C245.383 122.46 247.832 122.134 245.026 122.022C241.813 121.896 238.844 122.005 235.702 121.458C229.644 120.402 222.714 119.292 217.086 117.13C214.535 116.148 212.265 114.916 210.363 113.232C208.33 117.033 207.789 117.311 208.795 119.274C210.631 122.86 220.858 124.671 225.469 125.605C230.037 126.533 235.288 127.505 240.796 127.505C244.964 127.505 249.243 126.82 253.387 126.449C258.159 126.019 260.604 125.366 265.374 124.55C262.758 124.908 259.835 122.752 258.851 120.998C257.11 121.463 257.203 121.109 251.813 121.594" fill="black"/>
</svg>
